<svg width="59" height="50" viewBox="0 0 59 50" fill="none" xmlns="http://www.w3.org/2000/svg">
<ellipse cx="32.5" cy="25" rx="25.5" ry="25" fill="#FEBB99"/>
<ellipse cx="29.4121" cy="25" rx="25.5" ry="25" fill="#F9844A"/>
<path d="M9.15334 23.835C9.12667 23.8717 9.10001 23.9 9.07334 23.92C9.04667 23.94 9.01001 23.95 8.96334 23.95C8.91334 23.95 8.85834 23.93 8.79834 23.89C8.73834 23.8467 8.66334 23.8 8.57334 23.75C8.48667 23.7 8.37834 23.655 8.24834 23.615C8.12167 23.5717 7.96501 23.55 7.77834 23.55C7.52834 23.55 7.30834 23.595 7.11834 23.685C6.92834 23.7717 6.76834 23.8983 6.63834 24.065C6.51167 24.2317 6.41501 24.4333 6.34834 24.67C6.28501 24.9067 6.25334 25.1717 6.25334 25.465C6.25334 25.7717 6.28834 26.045 6.35834 26.285C6.42834 26.5217 6.52667 26.7217 6.65334 26.885C6.78334 27.045 6.93834 27.1683 7.11834 27.255C7.30167 27.3383 7.50667 27.38 7.73334 27.38C7.95001 27.38 8.12834 27.355 8.26834 27.305C8.40834 27.2517 8.52334 27.1933 8.61334 27.13C8.70667 27.0667 8.78334 27.01 8.84334 26.96C8.90667 26.9067 8.96834 26.88 9.02834 26.88C9.10167 26.88 9.15834 26.9083 9.19834 26.965L9.44834 27.29C9.33834 27.4267 9.21334 27.5433 9.07334 27.64C8.93334 27.7367 8.78167 27.8183 8.61834 27.885C8.45834 27.9483 8.29001 27.995 8.11334 28.025C7.93667 28.055 7.75667 28.07 7.57334 28.07C7.25667 28.07 6.96167 28.0117 6.68834 27.895C6.41834 27.7783 6.18334 27.61 5.98334 27.39C5.78334 27.1667 5.62667 26.8933 5.51334 26.57C5.40001 26.2467 5.34334 25.8783 5.34334 25.465C5.34334 25.0883 5.39501 24.74 5.49834 24.42C5.60501 24.1 5.75834 23.825 5.95834 23.595C6.16167 23.3617 6.41001 23.18 6.70334 23.05C7.00001 22.92 7.34001 22.855 7.72334 22.855C8.08001 22.855 8.39334 22.9133 8.66334 23.03C8.93667 23.1433 9.17834 23.305 9.38834 23.515L9.15334 23.835ZM12.4508 22.855C12.8208 22.855 13.1542 22.9167 13.4508 23.04C13.7475 23.1633 14.0008 23.3383 14.2108 23.565C14.4208 23.7917 14.5808 24.0667 14.6908 24.39C14.8042 24.71 14.8608 25.0683 14.8608 25.465C14.8608 25.865 14.8042 26.225 14.6908 26.545C14.5808 26.865 14.4208 27.1383 14.2108 27.365C14.0008 27.5917 13.7475 27.7667 13.4508 27.89C13.1542 28.01 12.8208 28.07 12.4508 28.07C12.0775 28.07 11.7408 28.01 11.4408 27.89C11.1442 27.7667 10.8908 27.5917 10.6808 27.365C10.4708 27.1383 10.3092 26.865 10.1958 26.545C10.0858 26.225 10.0308 25.865 10.0308 25.465C10.0308 25.0683 10.0858 24.71 10.1958 24.39C10.3092 24.0667 10.4708 23.7917 10.6808 23.565C10.8908 23.3383 11.1442 23.1633 11.4408 23.04C11.7408 22.9167 12.0775 22.855 12.4508 22.855ZM12.4508 27.375C12.9508 27.375 13.3242 27.2083 13.5708 26.875C13.8175 26.5383 13.9408 26.07 13.9408 25.47C13.9408 24.8667 13.8175 24.3967 13.5708 24.06C13.3242 23.7233 12.9508 23.555 12.4508 23.555C12.1975 23.555 11.9758 23.5983 11.7858 23.685C11.5992 23.7717 11.4425 23.8967 11.3158 24.06C11.1925 24.2233 11.0992 24.425 11.0358 24.665C10.9758 24.9017 10.9458 25.17 10.9458 25.47C10.9458 26.07 11.0692 26.5383 11.3158 26.875C11.5658 27.2083 11.9442 27.375 12.4508 27.375ZM15.9897 28V22.935H16.5247C16.6513 22.935 16.7297 22.9967 16.7597 23.12L16.8247 23.64C17.0113 23.41 17.2213 23.2217 17.4547 23.075C17.688 22.9283 17.958 22.855 18.2647 22.855C18.6047 22.855 18.8797 22.95 19.0897 23.14C19.303 23.33 19.4563 23.5867 19.5497 23.91C19.623 23.7267 19.7163 23.5683 19.8297 23.435C19.9463 23.3017 20.0763 23.1917 20.2197 23.105C20.363 23.0183 20.5147 22.955 20.6747 22.915C20.838 22.875 21.003 22.855 21.1697 22.855C21.4363 22.855 21.673 22.8983 21.8797 22.985C22.0897 23.0683 22.2663 23.1917 22.4097 23.355C22.5563 23.5183 22.668 23.72 22.7447 23.96C22.8213 24.1967 22.8597 24.4683 22.8597 24.775V28H21.9647V24.775C21.9647 24.3783 21.878 24.0783 21.7047 23.875C21.5313 23.6683 21.2813 23.565 20.9547 23.565C20.808 23.565 20.668 23.5917 20.5347 23.645C20.4047 23.695 20.2897 23.77 20.1897 23.87C20.0897 23.97 20.0097 24.0967 19.9497 24.25C19.893 24.4 19.8647 24.575 19.8647 24.775V28H18.9697V24.775C18.9697 24.3683 18.888 24.065 18.7247 23.865C18.5613 23.665 18.323 23.565 18.0097 23.565C17.7897 23.565 17.5863 23.625 17.3997 23.745C17.213 23.8617 17.0413 24.0217 16.8847 24.225V28H15.9897ZM24.2123 28V22.935H24.7473C24.874 22.935 24.9523 22.9967 24.9823 23.12L25.0473 23.64C25.234 23.41 25.444 23.2217 25.6773 23.075C25.9107 22.9283 26.1807 22.855 26.4873 22.855C26.8273 22.855 27.1023 22.95 27.3123 23.14C27.5257 23.33 27.679 23.5867 27.7723 23.91C27.8457 23.7267 27.939 23.5683 28.0523 23.435C28.169 23.3017 28.299 23.1917 28.4423 23.105C28.5857 23.0183 28.7373 22.955 28.8973 22.915C29.0607 22.875 29.2257 22.855 29.3923 22.855C29.659 22.855 29.8957 22.8983 30.1023 22.985C30.3123 23.0683 30.489 23.1917 30.6323 23.355C30.779 23.5183 30.8907 23.72 30.9673 23.96C31.044 24.1967 31.0823 24.4683 31.0823 24.775V28H30.1873V24.775C30.1873 24.3783 30.1007 24.0783 29.9273 23.875C29.754 23.6683 29.504 23.565 29.1773 23.565C29.0307 23.565 28.8907 23.5917 28.7573 23.645C28.6273 23.695 28.5123 23.77 28.4123 23.87C28.3123 23.97 28.2323 24.0967 28.1723 24.25C28.1157 24.4 28.0873 24.575 28.0873 24.775V28H27.1923V24.775C27.1923 24.3683 27.1107 24.065 26.9473 23.865C26.784 23.665 26.5457 23.565 26.2323 23.565C26.0123 23.565 25.809 23.625 25.6223 23.745C25.4357 23.8617 25.264 24.0217 25.1073 24.225V28H24.2123ZM36.6 22.935V28H36.07C35.9433 28 35.8633 27.9383 35.83 27.815L35.76 27.27C35.54 27.5133 35.2933 27.71 35.02 27.86C34.7466 28.0067 34.4333 28.08 34.08 28.08C33.8033 28.08 33.5583 28.035 33.345 27.945C33.135 27.8517 32.9583 27.7217 32.815 27.555C32.6716 27.3883 32.5633 27.1867 32.49 26.95C32.42 26.7133 32.385 26.4517 32.385 26.165V22.935H33.275V26.165C33.275 26.5483 33.3616 26.845 33.535 27.055C33.7116 27.265 33.98 27.37 34.34 27.37C34.6033 27.37 34.8483 27.3083 35.075 27.185C35.305 27.0583 35.5166 26.885 35.71 26.665V22.935H36.6ZM38.8512 23.67C38.9612 23.5467 39.0778 23.435 39.2012 23.335C39.3245 23.235 39.4545 23.15 39.5912 23.08C39.7312 23.0067 39.8778 22.9517 40.0312 22.915C40.1878 22.875 40.3562 22.855 40.5362 22.855C40.8128 22.855 41.0562 22.9017 41.2662 22.995C41.4795 23.085 41.6562 23.215 41.7962 23.385C41.9395 23.5517 42.0478 23.7533 42.1212 23.99C42.1945 24.2267 42.2312 24.4883 42.2312 24.775V28H41.3362V24.775C41.3362 24.3917 41.2478 24.095 41.0712 23.885C40.8978 23.6717 40.6328 23.565 40.2762 23.565C40.0128 23.565 39.7662 23.6283 39.5362 23.755C39.3095 23.8817 39.0995 24.0533 38.9062 24.27V28H38.0112V22.935H38.5462C38.6728 22.935 38.7512 22.9967 38.7812 23.12L38.8512 23.67ZM44.5273 22.935V28H43.6373V22.935H44.5273ZM44.7173 21.345C44.7173 21.4317 44.699 21.5133 44.6623 21.59C44.629 21.6633 44.5823 21.73 44.5223 21.79C44.4657 21.8467 44.3973 21.8917 44.3173 21.925C44.2407 21.9583 44.159 21.975 44.0723 21.975C43.9857 21.975 43.904 21.9583 43.8273 21.925C43.754 21.8917 43.689 21.8467 43.6323 21.79C43.5757 21.73 43.5307 21.6633 43.4973 21.59C43.464 21.5133 43.4473 21.4317 43.4473 21.345C43.4473 21.2583 43.464 21.1767 43.4973 21.1C43.5307 21.02 43.5757 20.9517 43.6323 20.895C43.689 20.835 43.754 20.7883 43.8273 20.755C43.904 20.7217 43.9857 20.705 44.0723 20.705C44.159 20.705 44.2407 20.7217 44.3173 20.755C44.3973 20.7883 44.4657 20.835 44.5223 20.895C44.5823 20.9517 44.629 21.02 44.6623 21.1C44.699 21.1767 44.7173 21.2583 44.7173 21.345ZM47.5447 28.08C47.1447 28.08 46.8363 27.9683 46.6197 27.745C46.4063 27.5217 46.2997 27.2 46.2997 26.78V23.68H45.6897C45.6363 23.68 45.5913 23.665 45.5547 23.635C45.518 23.6017 45.4997 23.5517 45.4997 23.485V23.13L46.3297 23.025L46.5347 21.46C46.5447 21.41 46.5663 21.37 46.5997 21.34C46.6363 21.3067 46.683 21.29 46.7397 21.29H47.1897V23.035H48.6547V23.68H47.1897V26.72C47.1897 26.9333 47.2413 27.0917 47.3447 27.195C47.448 27.2983 47.5813 27.35 47.7447 27.35C47.838 27.35 47.918 27.3383 47.9847 27.315C48.0547 27.2883 48.1147 27.26 48.1647 27.23C48.2147 27.2 48.2563 27.1733 48.2897 27.15C48.3263 27.1233 48.358 27.11 48.3847 27.11C48.4313 27.11 48.473 27.1383 48.5097 27.195L48.7697 27.62C48.6163 27.7633 48.4313 27.8767 48.2147 27.96C47.998 28.04 47.7747 28.08 47.5447 28.08ZM53.9437 22.935L51.1187 29.495C51.0887 29.5617 51.0503 29.615 51.0037 29.655C50.9603 29.695 50.892 29.715 50.7987 29.715H50.1387L51.0637 27.705L48.9737 22.935H49.7437C49.8203 22.935 49.8803 22.955 49.9237 22.995C49.9703 23.0317 50.002 23.0733 50.0187 23.12L51.3737 26.31C51.427 26.45 51.472 26.5967 51.5087 26.75C51.5553 26.5933 51.6053 26.445 51.6587 26.305L52.9737 23.12C52.9937 23.0667 53.027 23.0233 53.0737 22.99C53.1237 22.9533 53.1787 22.935 53.2387 22.935H53.9437Z" fill="white"/>
</svg>
