<svg width="54" height="50" viewBox="0 0 54 50" fill="none" xmlns="http://www.w3.org/2000/svg">
<circle cx="28.1104" cy="25" r="25" fill="#C5C6D9"/>
<circle cx="25" cy="25" r="25" fill="#575990"/>
<path d="M8.39421 23.835C8.36755 23.8717 8.34088 23.9 8.31421 23.92C8.28755 23.94 8.25088 23.95 8.20421 23.95C8.15421 23.95 8.09921 23.93 8.03921 23.89C7.97921 23.8467 7.90421 23.8 7.81421 23.75C7.72755 23.7 7.61921 23.655 7.48921 23.615C7.36255 23.5717 7.20588 23.55 7.01921 23.55C6.76921 23.55 6.54921 23.595 6.35921 23.685C6.16921 23.7717 6.00921 23.8983 5.87921 24.065C5.75255 24.2317 5.65588 24.4333 5.58921 24.67C5.52588 24.9067 5.49421 25.1717 5.49421 25.465C5.49421 25.7717 5.52921 26.045 5.59921 26.285C5.66921 26.5217 5.76755 26.7217 5.89421 26.885C6.02421 27.045 6.17921 27.1683 6.35921 27.255C6.54255 27.3383 6.74755 27.38 6.97421 27.38C7.19088 27.38 7.36921 27.355 7.50921 27.305C7.64921 27.2517 7.76421 27.1933 7.85421 27.13C7.94755 27.0667 8.02421 27.01 8.08421 26.96C8.14755 26.9067 8.20921 26.88 8.26921 26.88C8.34255 26.88 8.39921 26.9083 8.43921 26.965L8.68921 27.29C8.57921 27.4267 8.45421 27.5433 8.31421 27.64C8.17421 27.7367 8.02255 27.8183 7.85921 27.885C7.69921 27.9483 7.53088 27.995 7.35421 28.025C7.17755 28.055 6.99755 28.07 6.81421 28.07C6.49755 28.07 6.20255 28.0117 5.92921 27.895C5.65921 27.7783 5.42421 27.61 5.22421 27.39C5.02421 27.1667 4.86755 26.8933 4.75421 26.57C4.64088 26.2467 4.58421 25.8783 4.58421 25.465C4.58421 25.0883 4.63588 24.74 4.73921 24.42C4.84588 24.1 4.99921 23.825 5.19921 23.595C5.40255 23.3617 5.65088 23.18 5.94421 23.05C6.24088 22.92 6.58088 22.855 6.96421 22.855C7.32088 22.855 7.63421 22.9133 7.90421 23.03C8.17755 23.1433 8.41921 23.305 8.62921 23.515L8.39421 23.835ZM10.4896 23.95C10.6496 23.6033 10.8463 23.3333 11.0796 23.14C11.3129 22.9433 11.5979 22.845 11.9346 22.845C12.0413 22.845 12.1429 22.8567 12.2396 22.88C12.3396 22.9033 12.4279 22.94 12.5046 22.99L12.4396 23.655C12.4196 23.7383 12.3696 23.78 12.2896 23.78C12.2429 23.78 12.1746 23.77 12.0846 23.75C11.9946 23.73 11.8929 23.72 11.7796 23.72C11.6196 23.72 11.4763 23.7433 11.3496 23.79C11.2263 23.8367 11.1146 23.9067 11.0146 24C10.9179 24.09 10.8296 24.2033 10.7496 24.34C10.6729 24.4733 10.6029 24.6267 10.5396 24.8V28H9.6446V22.935H10.1546C10.2513 22.935 10.3179 22.9533 10.3546 22.99C10.3913 23.0267 10.4163 23.09 10.4296 23.18L10.4896 23.95ZM16.4721 24.915C16.4721 24.7083 16.4421 24.52 16.3821 24.35C16.3254 24.1767 16.2404 24.0283 16.1271 23.905C16.0171 23.7783 15.8821 23.6817 15.7221 23.615C15.5621 23.545 15.3804 23.51 15.1771 23.51C14.7504 23.51 14.4121 23.635 14.1621 23.885C13.9154 24.1317 13.7621 24.475 13.7021 24.915H16.4721ZM17.1921 27.29C17.0821 27.4233 16.9504 27.54 16.7971 27.64C16.6438 27.7367 16.4788 27.8167 16.3021 27.88C16.1288 27.9433 15.9488 27.99 15.7621 28.02C15.5754 28.0533 15.3904 28.07 15.2071 28.07C14.8571 28.07 14.5338 28.0117 14.2371 27.895C13.9438 27.775 13.6888 27.6017 13.4721 27.375C13.2588 27.145 13.0921 26.8617 12.9721 26.525C12.8521 26.1883 12.7921 25.8017 12.7921 25.365C12.7921 25.0117 12.8454 24.6817 12.9521 24.375C13.0621 24.0683 13.2188 23.8033 13.4221 23.58C13.6254 23.3533 13.8738 23.1767 14.1671 23.05C14.4604 22.92 14.7904 22.855 15.1571 22.855C15.4604 22.855 15.7404 22.9067 15.9971 23.01C16.2571 23.11 16.4804 23.2567 16.6671 23.45C16.8571 23.64 17.0054 23.8767 17.1121 24.16C17.2188 24.44 17.2721 24.76 17.2721 25.12C17.2721 25.26 17.2571 25.3533 17.2271 25.4C17.1971 25.4467 17.1404 25.47 17.0571 25.47H13.6721C13.6821 25.79 13.7254 26.0683 13.8021 26.305C13.8821 26.5417 13.9921 26.74 14.1321 26.9C14.2721 27.0567 14.4388 27.175 14.6321 27.255C14.8254 27.3317 15.0421 27.37 15.2821 27.37C15.5054 27.37 15.6971 27.345 15.8571 27.295C16.0204 27.2417 16.1604 27.185 16.2771 27.125C16.3938 27.065 16.4904 27.01 16.5671 26.96C16.6471 26.9067 16.7154 26.88 16.7721 26.88C16.8454 26.88 16.9021 26.9083 16.9421 26.965L17.1921 27.29ZM21.1103 25.72C20.7003 25.7333 20.3503 25.7667 20.0603 25.82C19.7736 25.87 19.5386 25.9367 19.3553 26.02C19.1753 26.1033 19.0436 26.2017 18.9603 26.315C18.8803 26.4283 18.8403 26.555 18.8403 26.695C18.8403 26.8283 18.862 26.9433 18.9053 27.04C18.9486 27.1367 19.007 27.2167 19.0803 27.28C19.157 27.34 19.2453 27.385 19.3453 27.415C19.4486 27.4417 19.5586 27.455 19.6753 27.455C19.832 27.455 19.9753 27.44 20.1053 27.41C20.2353 27.3767 20.357 27.33 20.4703 27.27C20.587 27.21 20.697 27.1383 20.8003 27.055C20.907 26.9717 21.0103 26.8767 21.1103 26.77V25.72ZM18.2353 23.65C18.5153 23.38 18.817 23.1783 19.1403 23.045C19.4636 22.9117 19.822 22.845 20.2153 22.845C20.4986 22.845 20.7503 22.8917 20.9703 22.985C21.1903 23.0783 21.3753 23.2083 21.5253 23.375C21.6753 23.5417 21.7886 23.7433 21.8653 23.98C21.942 24.2167 21.9803 24.4767 21.9803 24.76V28H21.5853C21.4986 28 21.432 27.9867 21.3853 27.96C21.3386 27.93 21.302 27.8733 21.2753 27.79L21.1753 27.31C21.042 27.4333 20.912 27.5433 20.7853 27.64C20.6586 27.7333 20.5253 27.8133 20.3853 27.88C20.2453 27.9433 20.0953 27.9917 19.9353 28.025C19.7786 28.0617 19.6036 28.08 19.4103 28.08C19.2136 28.08 19.0286 28.0533 18.8553 28C18.682 27.9433 18.5303 27.86 18.4003 27.75C18.2736 27.64 18.172 27.5017 18.0953 27.335C18.022 27.165 17.9853 26.965 17.9853 26.735C17.9853 26.535 18.0403 26.3433 18.1503 26.16C18.2603 25.9733 18.4386 25.8083 18.6853 25.665C18.932 25.5217 19.2536 25.405 19.6503 25.315C20.047 25.2217 20.5336 25.1683 21.1103 25.155V24.76C21.1103 24.3667 21.0253 24.07 20.8553 23.87C20.6853 23.6667 20.437 23.565 20.1103 23.565C19.8903 23.565 19.7053 23.5933 19.5553 23.65C19.4086 23.7033 19.2803 23.765 19.1703 23.835C19.0636 23.9017 18.9703 23.9633 18.8903 24.02C18.8136 24.0733 18.737 24.1 18.6603 24.1C18.6003 24.1 18.5486 24.085 18.5053 24.055C18.462 24.0217 18.4253 23.9817 18.3953 23.935L18.2353 23.65ZM27.9677 28H27.0777V23.68H24.4677V26.72C24.4677 26.9333 24.5193 27.0917 24.6227 27.195C24.726 27.2983 24.8593 27.35 25.0227 27.35C25.116 27.35 25.196 27.3383 25.2627 27.315C25.3327 27.2883 25.3927 27.26 25.4427 27.23C25.4927 27.2 25.5343 27.1733 25.5677 27.15C25.6043 27.1233 25.636 27.11 25.6627 27.11C25.7093 27.11 25.751 27.1383 25.7877 27.195L26.0477 27.62C25.8943 27.7633 25.7093 27.8767 25.4927 27.96C25.276 28.04 25.0527 28.08 24.8227 28.08C24.4227 28.08 24.1143 27.9683 23.8977 27.745C23.6843 27.5217 23.5777 27.2 23.5777 26.78V23.68H22.9677C22.9143 23.68 22.8693 23.665 22.8327 23.635C22.796 23.6017 22.7777 23.5517 22.7777 23.485V23.13L23.6077 23.02L23.8127 21.46C23.8227 21.41 23.8443 21.37 23.8777 21.34C23.9143 21.3067 23.961 21.29 24.0177 21.29H24.4677V23.035H27.9677V28ZM28.1877 21.31C28.1877 21.3967 28.1693 21.4783 28.1327 21.555C28.0993 21.6283 28.0527 21.6933 27.9927 21.75C27.936 21.8067 27.8693 21.8517 27.7927 21.885C27.716 21.9183 27.6343 21.935 27.5477 21.935C27.461 21.935 27.3793 21.9183 27.3027 21.885C27.2293 21.8517 27.1643 21.8067 27.1077 21.75C27.051 21.6933 27.006 21.6283 26.9727 21.555C26.9393 21.4783 26.9227 21.3967 26.9227 21.31C26.9227 21.2233 26.9393 21.1417 26.9727 21.065C27.006 20.985 27.051 20.9167 27.1077 20.86C27.1643 20.8 27.2293 20.7533 27.3027 20.72C27.3793 20.6867 27.461 20.67 27.5477 20.67C27.6343 20.67 27.716 20.6867 27.7927 20.72C27.8693 20.7533 27.936 20.8 27.9927 20.86C28.0527 20.9167 28.0993 20.985 28.1327 21.065C28.1693 21.1417 28.1877 21.2233 28.1877 21.31ZM33.7698 22.935L31.7048 28H30.9048L28.8398 22.935H29.5648C29.6381 22.935 29.6981 22.9533 29.7448 22.99C29.7914 23.0267 29.8231 23.07 29.8398 23.12L31.1248 26.38C31.1648 26.5033 31.1998 26.6233 31.2298 26.74C31.2598 26.8567 31.2881 26.9733 31.3148 27.09C31.3414 26.9733 31.3698 26.8567 31.3998 26.74C31.4298 26.6233 31.4664 26.5033 31.5098 26.38L32.8098 23.12C32.8298 23.0667 32.8631 23.0233 32.9098 22.99C32.9564 22.9533 33.0114 22.935 33.0748 22.935H33.7698ZM35.526 22.935V28H34.636V22.935H35.526ZM35.716 21.345C35.716 21.4317 35.6977 21.5133 35.661 21.59C35.6277 21.6633 35.581 21.73 35.521 21.79C35.4643 21.8467 35.396 21.8917 35.316 21.925C35.2393 21.9583 35.1577 21.975 35.071 21.975C34.9843 21.975 34.9027 21.9583 34.826 21.925C34.7527 21.8917 34.6877 21.8467 34.631 21.79C34.5743 21.73 34.5293 21.6633 34.496 21.59C34.4627 21.5133 34.446 21.4317 34.446 21.345C34.446 21.2583 34.4627 21.1767 34.496 21.1C34.5293 21.02 34.5743 20.9517 34.631 20.895C34.6877 20.835 34.7527 20.7883 34.826 20.755C34.9027 20.7217 34.9843 20.705 35.071 20.705C35.1577 20.705 35.2393 20.7217 35.316 20.755C35.396 20.7883 35.4643 20.835 35.521 20.895C35.581 20.9517 35.6277 21.02 35.661 21.1C35.6977 21.1767 35.716 21.2583 35.716 21.345ZM38.5434 28.08C38.1434 28.08 37.835 27.9683 37.6184 27.745C37.405 27.5217 37.2984 27.2 37.2984 26.78V23.68H36.6884C36.635 23.68 36.59 23.665 36.5534 23.635C36.5167 23.6017 36.4984 23.5517 36.4984 23.485V23.13L37.3284 23.025L37.5334 21.46C37.5434 21.41 37.565 21.37 37.5984 21.34C37.635 21.3067 37.6817 21.29 37.7384 21.29H38.1884V23.035H39.6534V23.68H38.1884V26.72C38.1884 26.9333 38.24 27.0917 38.3434 27.195C38.4467 27.2983 38.58 27.35 38.7434 27.35C38.8367 27.35 38.9167 27.3383 38.9834 27.315C39.0534 27.2883 39.1134 27.26 39.1634 27.23C39.2134 27.2 39.255 27.1733 39.2884 27.15C39.325 27.1233 39.3567 27.11 39.3834 27.11C39.43 27.11 39.4717 27.1383 39.5084 27.195L39.7684 27.62C39.615 27.7633 39.43 27.8767 39.2134 27.96C38.9967 28.04 38.7734 28.08 38.5434 28.08ZM44.9423 22.935L42.1173 29.495C42.0873 29.5617 42.049 29.615 42.0023 29.655C41.959 29.695 41.8907 29.715 41.7973 29.715H41.1373L42.0623 27.705L39.9723 22.935H40.7423C40.819 22.935 40.879 22.955 40.9223 22.995C40.969 23.0317 41.0007 23.0733 41.0173 23.12L42.3723 26.31C42.4257 26.45 42.4707 26.5967 42.5073 26.75C42.554 26.5933 42.604 26.445 42.6573 26.305L43.9723 23.12C43.9923 23.0667 44.0257 23.0233 44.0723 22.99C44.1223 22.9533 44.1773 22.935 44.2373 22.935H44.9423Z" fill="white"/>
</svg>
