<svg width="54" height="50" viewBox="0 0 54 50" fill="none" xmlns="http://www.w3.org/2000/svg">
<circle cx="28.1104" cy="25" r="25" fill="#FAB4B5"/>
<circle cx="25" cy="25" r="25" fill="#F94144"/>
<path d="M7.24167 24.915C7.24167 24.7083 7.21167 24.52 7.15167 24.35C7.095 24.1767 7.01 24.0283 6.89667 23.905C6.78667 23.7783 6.65167 23.6817 6.49167 23.615C6.33167 23.545 6.15 23.51 5.94667 23.51C5.52 23.51 5.18167 23.635 4.93167 23.885C4.685 24.1317 4.53167 24.475 4.47167 24.915H7.24167ZM7.96167 27.29C7.85167 27.4233 7.72 27.54 7.56667 27.64C7.41333 27.7367 7.24833 27.8167 7.07167 27.88C6.89833 27.9433 6.71833 27.99 6.53167 28.02C6.345 28.0533 6.16 28.07 5.97667 28.07C5.62667 28.07 5.30333 28.0117 5.00667 27.895C4.71333 27.775 4.45833 27.6017 4.24167 27.375C4.02833 27.145 3.86167 26.8617 3.74167 26.525C3.62167 26.1883 3.56167 25.8017 3.56167 25.365C3.56167 25.0117 3.615 24.6817 3.72167 24.375C3.83167 24.0683 3.98833 23.8033 4.19167 23.58C4.395 23.3533 4.64333 23.1767 4.93667 23.05C5.23 22.92 5.56 22.855 5.92667 22.855C6.23 22.855 6.51 22.9067 6.76667 23.01C7.02667 23.11 7.25 23.2567 7.43667 23.45C7.62667 23.64 7.775 23.8767 7.88167 24.16C7.98833 24.44 8.04167 24.76 8.04167 25.12C8.04167 25.26 8.02667 25.3533 7.99667 25.4C7.96667 25.4467 7.91 25.47 7.82667 25.47H4.44167C4.45167 25.79 4.495 26.0683 4.57167 26.305C4.65167 26.5417 4.76167 26.74 4.90167 26.9C5.04167 27.0567 5.20833 27.175 5.40167 27.255C5.595 27.3317 5.81167 27.37 6.05167 27.37C6.275 27.37 6.46667 27.345 6.62667 27.295C6.79 27.2417 6.93 27.185 7.04667 27.125C7.16333 27.065 7.26 27.01 7.33667 26.96C7.41667 26.9067 7.485 26.88 7.54167 26.88C7.615 26.88 7.67167 26.9083 7.71167 26.965L7.96167 27.29ZM12.4349 24.14C12.2682 23.9167 12.0882 23.7617 11.8949 23.675C11.7015 23.585 11.4849 23.54 11.2449 23.54C10.7749 23.54 10.4132 23.7083 10.1599 24.045C9.90654 24.3817 9.77987 24.8617 9.77987 25.485C9.77987 25.815 9.8082 26.0983 9.86487 26.335C9.92154 26.5683 10.0049 26.7617 10.1149 26.915C10.2249 27.065 10.3599 27.175 10.5199 27.245C10.6799 27.315 10.8615 27.35 11.0649 27.35C11.3582 27.35 11.6132 27.2833 11.8299 27.15C12.0499 27.0167 12.2515 26.8283 12.4349 26.585V24.14ZM13.3249 20.635V28H12.7949C12.6682 28 12.5882 27.9383 12.5549 27.815L12.4749 27.2C12.2582 27.46 12.0115 27.67 11.7349 27.83C11.4582 27.99 11.1382 28.07 10.7749 28.07C10.4849 28.07 10.2215 28.015 9.98487 27.905C9.7482 27.7917 9.54654 27.6267 9.37987 27.41C9.2132 27.1933 9.08487 26.9233 8.99487 26.6C8.90487 26.2767 8.85987 25.905 8.85987 25.485C8.85987 25.1117 8.90987 24.765 9.00987 24.445C9.10987 24.1217 9.2532 23.8417 9.43987 23.605C9.62654 23.3683 9.85487 23.1833 10.1249 23.05C10.3982 22.9133 10.7049 22.845 11.0449 22.845C11.3549 22.845 11.6199 22.8983 11.8399 23.005C12.0632 23.1083 12.2615 23.2533 12.4349 23.44V20.635H13.3249ZM18.8956 22.935V28H18.3656C18.2389 28 18.1589 27.9383 18.1256 27.815L18.0556 27.27C17.8356 27.5133 17.5889 27.71 17.3156 27.86C17.0422 28.0067 16.7289 28.08 16.3756 28.08C16.0989 28.08 15.8539 28.035 15.6406 27.945C15.4306 27.8517 15.2539 27.7217 15.1106 27.555C14.9672 27.3883 14.8589 27.1867 14.7856 26.95C14.7156 26.7133 14.6806 26.4517 14.6806 26.165V22.935H15.5706V26.165C15.5706 26.5483 15.6572 26.845 15.8306 27.055C16.0072 27.265 16.2756 27.37 16.6356 27.37C16.8989 27.37 17.1439 27.3083 17.3706 27.185C17.6006 27.0583 17.8122 26.885 18.0056 26.665V22.935H18.8956ZM23.8317 23.835C23.8051 23.8717 23.7784 23.9 23.7517 23.92C23.7251 23.94 23.6884 23.95 23.6417 23.95C23.5917 23.95 23.5367 23.93 23.4767 23.89C23.4167 23.8467 23.3417 23.8 23.2517 23.75C23.1651 23.7 23.0567 23.655 22.9267 23.615C22.8001 23.5717 22.6434 23.55 22.4567 23.55C22.2067 23.55 21.9867 23.595 21.7967 23.685C21.6067 23.7717 21.4467 23.8983 21.3167 24.065C21.1901 24.2317 21.0934 24.4333 21.0267 24.67C20.9634 24.9067 20.9317 25.1717 20.9317 25.465C20.9317 25.7717 20.9667 26.045 21.0367 26.285C21.1067 26.5217 21.2051 26.7217 21.3317 26.885C21.4617 27.045 21.6167 27.1683 21.7967 27.255C21.9801 27.3383 22.1851 27.38 22.4117 27.38C22.6284 27.38 22.8067 27.355 22.9467 27.305C23.0867 27.2517 23.2017 27.1933 23.2917 27.13C23.3851 27.0667 23.4617 27.01 23.5217 26.96C23.5851 26.9067 23.6467 26.88 23.7067 26.88C23.7801 26.88 23.8367 26.9083 23.8767 26.965L24.1267 27.29C24.0167 27.4267 23.8917 27.5433 23.7517 27.64C23.6117 27.7367 23.4601 27.8183 23.2967 27.885C23.1367 27.9483 22.9684 27.995 22.7917 28.025C22.6151 28.055 22.4351 28.07 22.2517 28.07C21.9351 28.07 21.6401 28.0117 21.3667 27.895C21.0967 27.7783 20.8617 27.61 20.6617 27.39C20.4617 27.1667 20.3051 26.8933 20.1917 26.57C20.0784 26.2467 20.0217 25.8783 20.0217 25.465C20.0217 25.0883 20.0734 24.74 20.1767 24.42C20.2834 24.1 20.4367 23.825 20.6367 23.595C20.8401 23.3617 21.0884 23.18 21.3817 23.05C21.6784 22.92 22.0184 22.855 22.4017 22.855C22.7584 22.855 23.0717 22.9133 23.3417 23.03C23.6151 23.1433 23.8567 23.305 24.0667 23.515L23.8317 23.835ZM27.8271 25.72C27.4171 25.7333 27.0671 25.7667 26.7771 25.82C26.4905 25.87 26.2555 25.9367 26.0721 26.02C25.8921 26.1033 25.7605 26.2017 25.6771 26.315C25.5971 26.4283 25.5571 26.555 25.5571 26.695C25.5571 26.8283 25.5788 26.9433 25.6221 27.04C25.6655 27.1367 25.7238 27.2167 25.7971 27.28C25.8738 27.34 25.9621 27.385 26.0621 27.415C26.1655 27.4417 26.2755 27.455 26.3921 27.455C26.5488 27.455 26.6921 27.44 26.8221 27.41C26.9521 27.3767 27.0738 27.33 27.1871 27.27C27.3038 27.21 27.4138 27.1383 27.5171 27.055C27.6238 26.9717 27.7271 26.8767 27.8271 26.77V25.72ZM24.9521 23.65C25.2321 23.38 25.5338 23.1783 25.8571 23.045C26.1805 22.9117 26.5388 22.845 26.9321 22.845C27.2155 22.845 27.4671 22.8917 27.6871 22.985C27.9071 23.0783 28.0921 23.2083 28.2421 23.375C28.3921 23.5417 28.5055 23.7433 28.5821 23.98C28.6588 24.2167 28.6971 24.4767 28.6971 24.76V28H28.3021C28.2155 28 28.1488 27.9867 28.1021 27.96C28.0555 27.93 28.0188 27.8733 27.9921 27.79L27.8921 27.31C27.7588 27.4333 27.6288 27.5433 27.5021 27.64C27.3755 27.7333 27.2421 27.8133 27.1021 27.88C26.9621 27.9433 26.8121 27.9917 26.6521 28.025C26.4955 28.0617 26.3205 28.08 26.1271 28.08C25.9305 28.08 25.7455 28.0533 25.5721 28C25.3988 27.9433 25.2471 27.86 25.1171 27.75C24.9905 27.64 24.8888 27.5017 24.8121 27.335C24.7388 27.165 24.7021 26.965 24.7021 26.735C24.7021 26.535 24.7571 26.3433 24.8671 26.16C24.9771 25.9733 25.1555 25.8083 25.4021 25.665C25.6488 25.5217 25.9705 25.405 26.3671 25.315C26.7638 25.2217 27.2505 25.1683 27.8271 25.155V24.76C27.8271 24.3667 27.7421 24.07 27.5721 23.87C27.4021 23.6667 27.1538 23.565 26.8271 23.565C26.6071 23.565 26.4221 23.5933 26.2721 23.65C26.1255 23.7033 25.9971 23.765 25.8871 23.835C25.7805 23.9017 25.6871 23.9633 25.6071 24.02C25.5305 24.0733 25.4538 24.1 25.3771 24.1C25.3171 24.1 25.2655 24.085 25.2221 24.055C25.1788 24.0217 25.1421 23.9817 25.1121 23.935L24.9521 23.65ZM34.6845 28H33.7945V23.68H31.1845V26.72C31.1845 26.9333 31.2361 27.0917 31.3395 27.195C31.4428 27.2983 31.5761 27.35 31.7395 27.35C31.8328 27.35 31.9128 27.3383 31.9795 27.315C32.0495 27.2883 32.1095 27.26 32.1595 27.23C32.2095 27.2 32.2511 27.1733 32.2845 27.15C32.3211 27.1233 32.3528 27.11 32.3795 27.11C32.4261 27.11 32.4678 27.1383 32.5045 27.195L32.7645 27.62C32.6111 27.7633 32.4261 27.8767 32.2095 27.96C31.9928 28.04 31.7695 28.08 31.5395 28.08C31.1395 28.08 30.8311 27.9683 30.6145 27.745C30.4011 27.5217 30.2945 27.2 30.2945 26.78V23.68H29.6845C29.6311 23.68 29.5861 23.665 29.5495 23.635C29.5128 23.6017 29.4945 23.5517 29.4945 23.485V23.13L30.3245 23.02L30.5295 21.46C30.5395 21.41 30.5611 21.37 30.5945 21.34C30.6311 21.3067 30.6778 21.29 30.7345 21.29H31.1845V23.035H34.6845V28ZM34.9045 21.31C34.9045 21.3967 34.8861 21.4783 34.8495 21.555C34.8161 21.6283 34.7695 21.6933 34.7095 21.75C34.6528 21.8067 34.5861 21.8517 34.5095 21.885C34.4328 21.9183 34.3511 21.935 34.2645 21.935C34.1778 21.935 34.0961 21.9183 34.0195 21.885C33.9461 21.8517 33.8811 21.8067 33.8245 21.75C33.7678 21.6933 33.7228 21.6283 33.6895 21.555C33.6561 21.4783 33.6395 21.3967 33.6395 21.31C33.6395 21.2233 33.6561 21.1417 33.6895 21.065C33.7228 20.985 33.7678 20.9167 33.8245 20.86C33.8811 20.8 33.9461 20.7533 34.0195 20.72C34.0961 20.6867 34.1778 20.67 34.2645 20.67C34.3511 20.67 34.4328 20.6867 34.5095 20.72C34.5861 20.7533 34.6528 20.8 34.7095 20.86C34.7695 20.9167 34.8161 20.985 34.8495 21.065C34.8861 21.1417 34.9045 21.2233 34.9045 21.31ZM38.2816 22.855C38.6516 22.855 38.9849 22.9167 39.2816 23.04C39.5783 23.1633 39.8316 23.3383 40.0416 23.565C40.2516 23.7917 40.4116 24.0667 40.5216 24.39C40.6349 24.71 40.6916 25.0683 40.6916 25.465C40.6916 25.865 40.6349 26.225 40.5216 26.545C40.4116 26.865 40.2516 27.1383 40.0416 27.365C39.8316 27.5917 39.5783 27.7667 39.2816 27.89C38.9849 28.01 38.6516 28.07 38.2816 28.07C37.9083 28.07 37.5716 28.01 37.2716 27.89C36.9749 27.7667 36.7216 27.5917 36.5116 27.365C36.3016 27.1383 36.1399 26.865 36.0266 26.545C35.9166 26.225 35.8616 25.865 35.8616 25.465C35.8616 25.0683 35.9166 24.71 36.0266 24.39C36.1399 24.0667 36.3016 23.7917 36.5116 23.565C36.7216 23.3383 36.9749 23.1633 37.2716 23.04C37.5716 22.9167 37.9083 22.855 38.2816 22.855ZM38.2816 27.375C38.7816 27.375 39.1549 27.2083 39.4016 26.875C39.6483 26.5383 39.7716 26.07 39.7716 25.47C39.7716 24.8667 39.6483 24.3967 39.4016 24.06C39.1549 23.7233 38.7816 23.555 38.2816 23.555C38.0283 23.555 37.8066 23.5983 37.6166 23.685C37.4299 23.7717 37.2733 23.8967 37.1466 24.06C37.0233 24.2233 36.9299 24.425 36.8666 24.665C36.8066 24.9017 36.7766 25.17 36.7766 25.47C36.7766 26.07 36.8999 26.5383 37.1466 26.875C37.3966 27.2083 37.7749 27.375 38.2816 27.375ZM42.6604 23.67C42.7704 23.5467 42.8871 23.435 43.0104 23.335C43.1338 23.235 43.2638 23.15 43.4004 23.08C43.5404 23.0067 43.6871 22.9517 43.8404 22.915C43.9971 22.875 44.1654 22.855 44.3454 22.855C44.6221 22.855 44.8654 22.9017 45.0754 22.995C45.2888 23.085 45.4654 23.215 45.6054 23.385C45.7488 23.5517 45.8571 23.7533 45.9304 23.99C46.0038 24.2267 46.0404 24.4883 46.0404 24.775V28H45.1454V24.775C45.1454 24.3917 45.0571 24.095 44.8804 23.885C44.7071 23.6717 44.4421 23.565 44.0854 23.565C43.8221 23.565 43.5754 23.6283 43.3454 23.755C43.1188 23.8817 42.9088 24.0533 42.7154 24.27V28H41.8204V22.935H42.3554C42.4821 22.935 42.5604 22.9967 42.5904 23.12L42.6604 23.67Z" fill="white"/>
</svg>
