<svg width="293" height="165" viewBox="0 0 293 165" fill="none" xmlns="http://www.w3.org/2000/svg">
<path d="M9.6 32.66C10.9 31.28 12.34 30.18 13.92 29.36C15.5 28.54 17.32 28.13 19.38 28.13C21.04 28.13 22.5 28.41 23.76 28.97C25.04 29.51 26.1 30.29 26.94 31.31C27.8 32.31 28.45 33.52 28.89 34.94C29.33 36.36 29.55 37.93 29.55 39.65V59H24.18V39.65C24.18 37.35 23.65 35.57 22.59 34.31C21.55 33.03 19.96 32.39 17.82 32.39C16.24 32.39 14.76 32.77 13.38 33.53C12.02 34.29 10.76 35.32 9.6 36.62V59H4.23V14.81H9.6V32.66ZM58.027 40.49C58.027 39.25 57.847 38.12 57.487 37.1C57.147 36.06 56.637 35.17 55.957 34.43C55.297 33.67 54.487 33.09 53.527 32.69C52.567 32.27 51.477 32.06 50.257 32.06C47.697 32.06 45.667 32.81 44.167 34.31C42.687 35.79 41.767 37.85 41.407 40.49H58.027ZM62.347 54.74C61.687 55.54 60.897 56.24 59.977 56.84C59.057 57.42 58.067 57.9 57.007 58.28C55.967 58.66 54.887 58.94 53.767 59.12C52.647 59.32 51.537 59.42 50.437 59.42C48.337 59.42 46.397 59.07 44.617 58.37C42.857 57.65 41.327 56.61 40.027 55.25C38.747 53.87 37.747 52.17 37.027 50.15C36.307 48.13 35.947 45.81 35.947 43.19C35.947 41.07 36.267 39.09 36.907 37.25C37.567 35.41 38.507 33.82 39.727 32.48C40.947 31.12 42.437 30.06 44.197 29.3C45.957 28.52 47.937 28.13 50.137 28.13C51.957 28.13 53.637 28.44 55.177 29.06C56.737 29.66 58.077 30.54 59.197 31.7C60.337 32.84 61.227 34.26 61.867 35.96C62.507 37.64 62.827 39.56 62.827 41.72C62.827 42.56 62.737 43.12 62.557 43.4C62.377 43.68 62.037 43.82 61.537 43.82H41.227C41.287 45.74 41.547 47.41 42.007 48.83C42.487 50.25 43.147 51.44 43.987 52.4C44.827 53.34 45.827 54.05 46.987 54.53C48.147 54.99 49.447 55.22 50.887 55.22C52.227 55.22 53.377 55.07 54.337 54.77C55.317 54.45 56.157 54.11 56.857 53.75C57.557 53.39 58.137 53.06 58.597 52.76C59.077 52.44 59.487 52.28 59.827 52.28C60.267 52.28 60.607 52.45 60.847 52.79L62.347 54.74ZM74.9063 14.81V59H69.5662V14.81H74.9063ZM89.0859 14.81V59H83.7459V14.81H89.0859ZM110.556 28.13C112.776 28.13 114.776 28.5 116.556 29.24C118.336 29.98 119.856 31.03 121.116 32.39C122.376 33.75 123.336 35.4 123.996 37.34C124.676 39.26 125.016 41.41 125.016 43.79C125.016 46.19 124.676 48.35 123.996 50.27C123.336 52.19 122.376 53.83 121.116 55.19C119.856 56.55 118.336 57.6 116.556 58.34C114.776 59.06 112.776 59.42 110.556 59.42C108.316 59.42 106.296 59.06 104.496 58.34C102.716 57.6 101.196 56.55 99.9356 55.19C98.6756 53.83 97.7056 52.19 97.0256 50.27C96.3656 48.35 96.0356 46.19 96.0356 43.79C96.0356 41.41 96.3656 39.26 97.0256 37.34C97.7056 35.4 98.6756 33.75 99.9356 32.39C101.196 31.03 102.716 29.98 104.496 29.24C106.296 28.5 108.316 28.13 110.556 28.13ZM110.556 55.25C113.556 55.25 115.796 54.25 117.276 52.25C118.756 50.23 119.496 47.42 119.496 43.82C119.496 40.2 118.756 37.38 117.276 35.36C115.796 33.34 113.556 32.33 110.556 32.33C109.036 32.33 107.706 32.59 106.566 33.11C105.446 33.63 104.506 34.38 103.746 35.36C103.006 36.34 102.446 37.55 102.066 38.99C101.706 40.41 101.526 42.02 101.526 43.82C101.526 47.42 102.266 50.23 103.746 52.25C105.246 54.25 107.516 55.25 110.556 55.25ZM187.82 28.61L177.98 59H173.75C173.23 59 172.87 58.66 172.67 57.98L165.95 37.37C165.79 36.91 165.66 36.45 165.56 35.99C165.46 35.51 165.36 35.04 165.26 34.58C165.16 35.04 165.06 35.51 164.96 35.99C164.86 36.45 164.73 36.92 164.57 37.4L157.73 57.98C157.55 58.66 157.15 59 156.53 59H152.51L142.67 28.61H146.87C147.29 28.61 147.64 28.72 147.92 28.94C148.22 29.16 148.42 29.42 148.52 29.72L154.34 49.28C154.68 50.72 154.95 52.08 155.15 53.36C155.33 52.7 155.51 52.03 155.69 51.35C155.89 50.67 156.1 49.98 156.32 49.28L162.74 29.6C162.84 29.3 163.01 29.05 163.25 28.85C163.51 28.65 163.82 28.55 164.18 28.55H166.52C166.92 28.55 167.25 28.65 167.51 28.85C167.77 29.05 167.95 29.3 168.05 29.6L174.32 49.28C174.54 49.98 174.74 50.67 174.92 51.35C175.1 52.03 175.27 52.7 175.43 53.36C175.53 52.7 175.65 52.04 175.79 51.38C175.95 50.7 176.12 50 176.3 49.28L182.24 29.72C182.34 29.4 182.53 29.14 182.81 28.94C183.09 28.72 183.42 28.61 183.8 28.61H187.82ZM205.419 28.13C207.639 28.13 209.639 28.5 211.419 29.24C213.199 29.98 214.719 31.03 215.979 32.39C217.239 33.75 218.199 35.4 218.859 37.34C219.539 39.26 219.879 41.41 219.879 43.79C219.879 46.19 219.539 48.35 218.859 50.27C218.199 52.19 217.239 53.83 215.979 55.19C214.719 56.55 213.199 57.6 211.419 58.34C209.639 59.06 207.639 59.42 205.419 59.42C203.179 59.42 201.159 59.06 199.359 58.34C197.579 57.6 196.059 56.55 194.799 55.19C193.539 53.83 192.569 52.19 191.889 50.27C191.229 48.35 190.899 46.19 190.899 43.79C190.899 41.41 191.229 39.26 191.889 37.34C192.569 35.4 193.539 33.75 194.799 32.39C196.059 31.03 197.579 29.98 199.359 29.24C201.159 28.5 203.179 28.13 205.419 28.13ZM205.419 55.25C208.419 55.25 210.659 54.25 212.139 52.25C213.619 50.23 214.359 47.42 214.359 43.82C214.359 40.2 213.619 37.38 212.139 35.36C210.659 33.34 208.419 32.33 205.419 32.33C203.899 32.33 202.569 32.59 201.429 33.11C200.309 33.63 199.369 34.38 198.609 35.36C197.869 36.34 197.309 37.55 196.929 38.99C196.569 40.41 196.389 42.02 196.389 43.82C196.389 47.42 197.129 50.23 198.609 52.25C200.109 54.25 202.379 55.25 205.419 55.25ZM231.722 34.7C232.682 32.62 233.862 31 235.262 29.84C236.662 28.66 238.372 28.07 240.392 28.07C241.032 28.07 241.642 28.14 242.222 28.28C242.822 28.42 243.352 28.64 243.812 28.94L243.422 32.93C243.302 33.43 243.002 33.68 242.522 33.68C242.242 33.68 241.832 33.62 241.292 33.5C240.752 33.38 240.142 33.32 239.462 33.32C238.502 33.32 237.642 33.46 236.882 33.74C236.142 34.02 235.472 34.44 234.872 35C234.292 35.54 233.762 36.22 233.282 37.04C232.822 37.84 232.402 38.76 232.022 39.8V59H226.652V28.61H229.712C230.292 28.61 230.692 28.72 230.912 28.94C231.132 29.16 231.282 29.54 231.362 30.08L231.722 34.7ZM254.027 14.81V59H248.687V14.81H254.027ZM282.487 35.84C281.487 34.5 280.407 33.57 279.247 33.05C278.087 32.51 276.787 32.24 275.347 32.24C272.527 32.24 270.357 33.25 268.837 35.27C267.317 37.29 266.557 40.17 266.557 43.91C266.557 45.89 266.727 47.59 267.067 49.01C267.407 50.41 267.907 51.57 268.567 52.49C269.227 53.39 270.037 54.05 270.997 54.47C271.957 54.89 273.047 55.1 274.267 55.1C276.027 55.1 277.557 54.7 278.857 53.9C280.177 53.1 281.387 51.97 282.487 50.51V35.84ZM287.827 14.81V59H284.647C283.887 59 283.407 58.63 283.207 57.89L282.727 54.2C281.427 55.76 279.947 57.02 278.287 57.98C276.627 58.94 274.707 59.42 272.527 59.42C270.787 59.42 269.207 59.09 267.787 58.43C266.367 57.75 265.157 56.76 264.157 55.46C263.157 54.16 262.387 52.54 261.847 50.6C261.307 48.66 261.037 46.43 261.037 43.91C261.037 41.67 261.337 39.59 261.937 37.67C262.537 35.73 263.397 34.05 264.517 32.63C265.637 31.21 267.007 30.1 268.627 29.3C270.267 28.48 272.107 28.07 274.147 28.07C276.007 28.07 277.597 28.39 278.917 29.03C280.257 29.65 281.447 30.52 282.487 31.64V14.81H287.827Z" fill="#575990"/>
<path d="M9.6 32.66C10.9 31.28 12.34 30.18 13.92 29.36C15.5 28.54 17.32 28.13 19.38 28.13C21.04 28.13 22.5 28.41 23.76 28.97C25.04 29.51 26.1 30.29 26.94 31.31C27.8 32.31 28.45 33.52 28.89 34.94C29.33 36.36 29.55 37.93 29.55 39.65V59H24.18V39.65C24.18 37.35 23.65 35.57 22.59 34.31C21.55 33.03 19.96 32.39 17.82 32.39C16.24 32.39 14.76 32.77 13.38 33.53C12.02 34.29 10.76 35.32 9.6 36.62V59H4.23V14.81H9.6V32.66ZM58.027 40.49C58.027 39.25 57.847 38.12 57.487 37.1C57.147 36.06 56.637 35.17 55.957 34.43C55.297 33.67 54.487 33.09 53.527 32.69C52.567 32.27 51.477 32.06 50.257 32.06C47.697 32.06 45.667 32.81 44.167 34.31C42.687 35.79 41.767 37.85 41.407 40.49H58.027ZM62.347 54.74C61.687 55.54 60.897 56.24 59.977 56.84C59.057 57.42 58.067 57.9 57.007 58.28C55.967 58.66 54.887 58.94 53.767 59.12C52.647 59.32 51.537 59.42 50.437 59.42C48.337 59.42 46.397 59.07 44.617 58.37C42.857 57.65 41.327 56.61 40.027 55.25C38.747 53.87 37.747 52.17 37.027 50.15C36.307 48.13 35.947 45.81 35.947 43.19C35.947 41.07 36.267 39.09 36.907 37.25C37.567 35.41 38.507 33.82 39.727 32.48C40.947 31.12 42.437 30.06 44.197 29.3C45.957 28.52 47.937 28.13 50.137 28.13C51.957 28.13 53.637 28.44 55.177 29.06C56.737 29.66 58.077 30.54 59.197 31.7C60.337 32.84 61.227 34.26 61.867 35.96C62.507 37.64 62.827 39.56 62.827 41.72C62.827 42.56 62.737 43.12 62.557 43.4C62.377 43.68 62.037 43.82 61.537 43.82H41.227C41.287 45.74 41.547 47.41 42.007 48.83C42.487 50.25 43.147 51.44 43.987 52.4C44.827 53.34 45.827 54.05 46.987 54.53C48.147 54.99 49.447 55.22 50.887 55.22C52.227 55.22 53.377 55.07 54.337 54.77C55.317 54.45 56.157 54.11 56.857 53.75C57.557 53.39 58.137 53.06 58.597 52.76C59.077 52.44 59.487 52.28 59.827 52.28C60.267 52.28 60.607 52.45 60.847 52.79L62.347 54.74ZM74.9063 14.81V59H69.5662V14.81H74.9063ZM89.0859 14.81V59H83.7459V14.81H89.0859ZM110.556 28.13C112.776 28.13 114.776 28.5 116.556 29.24C118.336 29.98 119.856 31.03 121.116 32.39C122.376 33.75 123.336 35.4 123.996 37.34C124.676 39.26 125.016 41.41 125.016 43.79C125.016 46.19 124.676 48.35 123.996 50.27C123.336 52.19 122.376 53.83 121.116 55.19C119.856 56.55 118.336 57.6 116.556 58.34C114.776 59.06 112.776 59.42 110.556 59.42C108.316 59.42 106.296 59.06 104.496 58.34C102.716 57.6 101.196 56.55 99.9356 55.19C98.6756 53.83 97.7056 52.19 97.0256 50.27C96.3656 48.35 96.0356 46.19 96.0356 43.79C96.0356 41.41 96.3656 39.26 97.0256 37.34C97.7056 35.4 98.6756 33.75 99.9356 32.39C101.196 31.03 102.716 29.98 104.496 29.24C106.296 28.5 108.316 28.13 110.556 28.13ZM110.556 55.25C113.556 55.25 115.796 54.25 117.276 52.25C118.756 50.23 119.496 47.42 119.496 43.82C119.496 40.2 118.756 37.38 117.276 35.36C115.796 33.34 113.556 32.33 110.556 32.33C109.036 32.33 107.706 32.59 106.566 33.11C105.446 33.63 104.506 34.38 103.746 35.36C103.006 36.34 102.446 37.55 102.066 38.99C101.706 40.41 101.526 42.02 101.526 43.82C101.526 47.42 102.266 50.23 103.746 52.25C105.246 54.25 107.516 55.25 110.556 55.25ZM187.82 28.61L177.98 59H173.75C173.23 59 172.87 58.66 172.67 57.98L165.95 37.37C165.79 36.91 165.66 36.45 165.56 35.99C165.46 35.51 165.36 35.04 165.26 34.58C165.16 35.04 165.06 35.51 164.96 35.99C164.86 36.45 164.73 36.92 164.57 37.4L157.73 57.98C157.55 58.66 157.15 59 156.53 59H152.51L142.67 28.61H146.87C147.29 28.61 147.64 28.72 147.92 28.94C148.22 29.16 148.42 29.42 148.52 29.72L154.34 49.28C154.68 50.72 154.95 52.08 155.15 53.36C155.33 52.7 155.51 52.03 155.69 51.35C155.89 50.67 156.1 49.98 156.32 49.28L162.74 29.6C162.84 29.3 163.01 29.05 163.25 28.85C163.51 28.65 163.82 28.55 164.18 28.55H166.52C166.92 28.55 167.25 28.65 167.51 28.85C167.77 29.05 167.95 29.3 168.05 29.6L174.32 49.28C174.54 49.98 174.74 50.67 174.92 51.35C175.1 52.03 175.27 52.7 175.43 53.36C175.53 52.7 175.65 52.04 175.79 51.38C175.95 50.7 176.12 50 176.3 49.28L182.24 29.72C182.34 29.4 182.53 29.14 182.81 28.94C183.09 28.72 183.42 28.61 183.8 28.61H187.82ZM205.419 28.13C207.639 28.13 209.639 28.5 211.419 29.24C213.199 29.98 214.719 31.03 215.979 32.39C217.239 33.75 218.199 35.4 218.859 37.34C219.539 39.26 219.879 41.41 219.879 43.79C219.879 46.19 219.539 48.35 218.859 50.27C218.199 52.19 217.239 53.83 215.979 55.19C214.719 56.55 213.199 57.6 211.419 58.34C209.639 59.06 207.639 59.42 205.419 59.42C203.179 59.42 201.159 59.06 199.359 58.34C197.579 57.6 196.059 56.55 194.799 55.19C193.539 53.83 192.569 52.19 191.889 50.27C191.229 48.35 190.899 46.19 190.899 43.79C190.899 41.41 191.229 39.26 191.889 37.34C192.569 35.4 193.539 33.75 194.799 32.39C196.059 31.03 197.579 29.98 199.359 29.24C201.159 28.5 203.179 28.13 205.419 28.13ZM205.419 55.25C208.419 55.25 210.659 54.25 212.139 52.25C213.619 50.23 214.359 47.42 214.359 43.82C214.359 40.2 213.619 37.38 212.139 35.36C210.659 33.34 208.419 32.33 205.419 32.33C203.899 32.33 202.569 32.59 201.429 33.11C200.309 33.63 199.369 34.38 198.609 35.36C197.869 36.34 197.309 37.55 196.929 38.99C196.569 40.41 196.389 42.02 196.389 43.82C196.389 47.42 197.129 50.23 198.609 52.25C200.109 54.25 202.379 55.25 205.419 55.25ZM231.722 34.7C232.682 32.62 233.862 31 235.262 29.84C236.662 28.66 238.372 28.07 240.392 28.07C241.032 28.07 241.642 28.14 242.222 28.28C242.822 28.42 243.352 28.64 243.812 28.94L243.422 32.93C243.302 33.43 243.002 33.68 242.522 33.68C242.242 33.68 241.832 33.62 241.292 33.5C240.752 33.38 240.142 33.32 239.462 33.32C238.502 33.32 237.642 33.46 236.882 33.74C236.142 34.02 235.472 34.44 234.872 35C234.292 35.54 233.762 36.22 233.282 37.04C232.822 37.84 232.402 38.76 232.022 39.8V59H226.652V28.61H229.712C230.292 28.61 230.692 28.72 230.912 28.94C231.132 29.16 231.282 29.54 231.362 30.08L231.722 34.7ZM254.027 14.81V59H248.687V14.81H254.027ZM282.487 35.84C281.487 34.5 280.407 33.57 279.247 33.05C278.087 32.51 276.787 32.24 275.347 32.24C272.527 32.24 270.357 33.25 268.837 35.27C267.317 37.29 266.557 40.17 266.557 43.91C266.557 45.89 266.727 47.59 267.067 49.01C267.407 50.41 267.907 51.57 268.567 52.49C269.227 53.39 270.037 54.05 270.997 54.47C271.957 54.89 273.047 55.1 274.267 55.1C276.027 55.1 277.557 54.7 278.857 53.9C280.177 53.1 281.387 51.97 282.487 50.51V35.84ZM287.827 14.81V59H284.647C283.887 59 283.407 58.63 283.207 57.89L282.727 54.2C281.427 55.76 279.947 57.02 278.287 57.98C276.627 58.94 274.707 59.42 272.527 59.42C270.787 59.42 269.207 59.09 267.787 58.43C266.367 57.75 265.157 56.76 264.157 55.46C263.157 54.16 262.387 52.54 261.847 50.6C261.307 48.66 261.037 46.43 261.037 43.91C261.037 41.67 261.337 39.59 261.937 37.67C262.537 35.73 263.397 34.05 264.517 32.63C265.637 31.21 267.007 30.1 268.627 29.3C270.267 28.48 272.107 28.07 274.147 28.07C276.007 28.07 277.597 28.39 278.917 29.03C280.257 29.65 281.447 30.52 282.487 31.64V14.81H287.827Z" fill="#575990"/>
<path d="M9.6 57.035C10.9 55.655 12.34 54.555 13.92 53.735C15.5 52.915 17.32 52.505 19.38 52.505C21.04 52.505 22.5 52.785 23.76 53.345C25.04 53.885 26.1 54.665 26.94 55.685C27.8 56.685 28.45 57.895 28.89 59.315C29.33 60.735 29.55 62.305 29.55 64.025V83.375H24.18V64.025C24.18 61.725 23.65 59.945 22.59 58.685C21.55 57.405 19.96 56.765 17.82 56.765C16.24 56.765 14.76 57.145 13.38 57.905C12.02 58.665 10.76 59.695 9.6 60.995V83.375H4.23V39.185H9.6V57.035ZM58.027 64.865C58.027 63.625 57.847 62.495 57.487 61.475C57.147 60.435 56.637 59.545 55.957 58.805C55.297 58.045 54.487 57.465 53.527 57.065C52.567 56.645 51.477 56.435 50.257 56.435C47.697 56.435 45.667 57.185 44.167 58.685C42.687 60.165 41.767 62.225 41.407 64.865H58.027ZM62.347 79.115C61.687 79.915 60.897 80.615 59.977 81.215C59.057 81.795 58.067 82.275 57.007 82.655C55.967 83.035 54.887 83.315 53.767 83.495C52.647 83.695 51.537 83.795 50.437 83.795C48.337 83.795 46.397 83.445 44.617 82.745C42.857 82.025 41.327 80.985 40.027 79.625C38.747 78.245 37.747 76.545 37.027 74.525C36.307 72.505 35.947 70.185 35.947 67.565C35.947 65.445 36.267 63.465 36.907 61.625C37.567 59.785 38.507 58.195 39.727 56.855C40.947 55.495 42.437 54.435 44.197 53.675C45.957 52.895 47.937 52.505 50.137 52.505C51.957 52.505 53.637 52.815 55.177 53.435C56.737 54.035 58.077 54.915 59.197 56.075C60.337 57.215 61.227 58.635 61.867 60.335C62.507 62.015 62.827 63.935 62.827 66.095C62.827 66.935 62.737 67.495 62.557 67.775C62.377 68.055 62.037 68.195 61.537 68.195H41.227C41.287 70.115 41.547 71.785 42.007 73.205C42.487 74.625 43.147 75.815 43.987 76.775C44.827 77.715 45.827 78.425 46.987 78.905C48.147 79.365 49.447 79.595 50.887 79.595C52.227 79.595 53.377 79.445 54.337 79.145C55.317 78.825 56.157 78.485 56.857 78.125C57.557 77.765 58.137 77.435 58.597 77.135C59.077 76.815 59.487 76.655 59.827 76.655C60.267 76.655 60.607 76.825 60.847 77.165L62.347 79.115ZM74.9063 39.185V83.375H69.5662V39.185H74.9063ZM89.0859 39.185V83.375H83.7459V39.185H89.0859ZM110.556 52.505C112.776 52.505 114.776 52.875 116.556 53.615C118.336 54.355 119.856 55.405 121.116 56.765C122.376 58.125 123.336 59.775 123.996 61.715C124.676 63.635 125.016 65.785 125.016 68.165C125.016 70.565 124.676 72.725 123.996 74.645C123.336 76.565 122.376 78.205 121.116 79.565C119.856 80.925 118.336 81.975 116.556 82.715C114.776 83.435 112.776 83.795 110.556 83.795C108.316 83.795 106.296 83.435 104.496 82.715C102.716 81.975 101.196 80.925 99.9356 79.565C98.6756 78.205 97.7056 76.565 97.0256 74.645C96.3656 72.725 96.0356 70.565 96.0356 68.165C96.0356 65.785 96.3656 63.635 97.0256 61.715C97.7056 59.775 98.6756 58.125 99.9356 56.765C101.196 55.405 102.716 54.355 104.496 53.615C106.296 52.875 108.316 52.505 110.556 52.505ZM110.556 79.625C113.556 79.625 115.796 78.625 117.276 76.625C118.756 74.605 119.496 71.795 119.496 68.195C119.496 64.575 118.756 61.755 117.276 59.735C115.796 57.715 113.556 56.705 110.556 56.705C109.036 56.705 107.706 56.965 106.566 57.485C105.446 58.005 104.506 58.755 103.746 59.735C103.006 60.715 102.446 61.925 102.066 63.365C101.706 64.785 101.526 66.395 101.526 68.195C101.526 71.795 102.266 74.605 103.746 76.625C105.246 78.625 107.516 79.625 110.556 79.625ZM187.82 52.985L177.98 83.375H173.75C173.23 83.375 172.87 83.035 172.67 82.355L165.95 61.745C165.79 61.285 165.66 60.825 165.56 60.365C165.46 59.885 165.36 59.415 165.26 58.955C165.16 59.415 165.06 59.885 164.96 60.365C164.86 60.825 164.73 61.295 164.57 61.775L157.73 82.355C157.55 83.035 157.15 83.375 156.53 83.375H152.51L142.67 52.985H146.87C147.29 52.985 147.64 53.095 147.92 53.315C148.22 53.535 148.42 53.795 148.52 54.095L154.34 73.655C154.68 75.095 154.95 76.455 155.15 77.735C155.33 77.075 155.51 76.405 155.69 75.725C155.89 75.045 156.1 74.355 156.32 73.655L162.74 53.975C162.84 53.675 163.01 53.425 163.25 53.225C163.51 53.025 163.82 52.925 164.18 52.925H166.52C166.92 52.925 167.25 53.025 167.51 53.225C167.77 53.425 167.95 53.675 168.05 53.975L174.32 73.655C174.54 74.355 174.74 75.045 174.92 75.725C175.1 76.405 175.27 77.075 175.43 77.735C175.53 77.075 175.65 76.415 175.79 75.755C175.95 75.075 176.12 74.375 176.3 73.655L182.24 54.095C182.34 53.775 182.53 53.515 182.81 53.315C183.09 53.095 183.42 52.985 183.8 52.985H187.82ZM205.419 52.505C207.639 52.505 209.639 52.875 211.419 53.615C213.199 54.355 214.719 55.405 215.979 56.765C217.239 58.125 218.199 59.775 218.859 61.715C219.539 63.635 219.879 65.785 219.879 68.165C219.879 70.565 219.539 72.725 218.859 74.645C218.199 76.565 217.239 78.205 215.979 79.565C214.719 80.925 213.199 81.975 211.419 82.715C209.639 83.435 207.639 83.795 205.419 83.795C203.179 83.795 201.159 83.435 199.359 82.715C197.579 81.975 196.059 80.925 194.799 79.565C193.539 78.205 192.569 76.565 191.889 74.645C191.229 72.725 190.899 70.565 190.899 68.165C190.899 65.785 191.229 63.635 191.889 61.715C192.569 59.775 193.539 58.125 194.799 56.765C196.059 55.405 197.579 54.355 199.359 53.615C201.159 52.875 203.179 52.505 205.419 52.505ZM205.419 79.625C208.419 79.625 210.659 78.625 212.139 76.625C213.619 74.605 214.359 71.795 214.359 68.195C214.359 64.575 213.619 61.755 212.139 59.735C210.659 57.715 208.419 56.705 205.419 56.705C203.899 56.705 202.569 56.965 201.429 57.485C200.309 58.005 199.369 58.755 198.609 59.735C197.869 60.715 197.309 61.925 196.929 63.365C196.569 64.785 196.389 66.395 196.389 68.195C196.389 71.795 197.129 74.605 198.609 76.625C200.109 78.625 202.379 79.625 205.419 79.625ZM231.722 59.075C232.682 56.995 233.862 55.375 235.262 54.215C236.662 53.035 238.372 52.445 240.392 52.445C241.032 52.445 241.642 52.515 242.222 52.655C242.822 52.795 243.352 53.015 243.812 53.315L243.422 57.305C243.302 57.805 243.002 58.055 242.522 58.055C242.242 58.055 241.832 57.995 241.292 57.875C240.752 57.755 240.142 57.695 239.462 57.695C238.502 57.695 237.642 57.835 236.882 58.115C236.142 58.395 235.472 58.815 234.872 59.375C234.292 59.915 233.762 60.595 233.282 61.415C232.822 62.215 232.402 63.135 232.022 64.175V83.375H226.652V52.985H229.712C230.292 52.985 230.692 53.095 230.912 53.315C231.132 53.535 231.282 53.915 231.362 54.455L231.722 59.075ZM254.027 39.185V83.375H248.687V39.185H254.027ZM282.487 60.215C281.487 58.875 280.407 57.945 279.247 57.425C278.087 56.885 276.787 56.615 275.347 56.615C272.527 56.615 270.357 57.625 268.837 59.645C267.317 61.665 266.557 64.545 266.557 68.285C266.557 70.265 266.727 71.965 267.067 73.385C267.407 74.785 267.907 75.945 268.567 76.865C269.227 77.765 270.037 78.425 270.997 78.845C271.957 79.265 273.047 79.475 274.267 79.475C276.027 79.475 277.557 79.075 278.857 78.275C280.177 77.475 281.387 76.345 282.487 74.885V60.215ZM287.827 39.185V83.375H284.647C283.887 83.375 283.407 83.005 283.207 82.265L282.727 78.575C281.427 80.135 279.947 81.395 278.287 82.355C276.627 83.315 274.707 83.795 272.527 83.795C270.787 83.795 269.207 83.465 267.787 82.805C266.367 82.125 265.157 81.135 264.157 79.835C263.157 78.535 262.387 76.915 261.847 74.975C261.307 73.035 261.037 70.805 261.037 68.285C261.037 66.045 261.337 63.965 261.937 62.045C262.537 60.105 263.397 58.425 264.517 57.005C265.637 55.585 267.007 54.475 268.627 53.675C270.267 52.855 272.107 52.445 274.147 52.445C276.007 52.445 277.597 52.765 278.917 53.405C280.257 54.025 281.447 54.895 282.487 56.015V39.185H287.827Z" fill="#277DA1"/>
<path d="M9.6 81.41C10.9 80.03 12.34 78.93 13.92 78.11C15.5 77.29 17.32 76.88 19.38 76.88C21.04 76.88 22.5 77.16 23.76 77.72C25.04 78.26 26.1 79.04 26.94 80.06C27.8 81.06 28.45 82.27 28.89 83.69C29.33 85.11 29.55 86.68 29.55 88.4V107.75H24.18V88.4C24.18 86.1 23.65 84.32 22.59 83.06C21.55 81.78 19.96 81.14 17.82 81.14C16.24 81.14 14.76 81.52 13.38 82.28C12.02 83.04 10.76 84.07 9.6 85.37V107.75H4.23V63.56H9.6V81.41ZM58.027 89.24C58.027 88 57.847 86.87 57.487 85.85C57.147 84.81 56.637 83.92 55.957 83.18C55.297 82.42 54.487 81.84 53.527 81.44C52.567 81.02 51.477 80.81 50.257 80.81C47.697 80.81 45.667 81.56 44.167 83.06C42.687 84.54 41.767 86.6 41.407 89.24H58.027ZM62.347 103.49C61.687 104.29 60.897 104.99 59.977 105.59C59.057 106.17 58.067 106.65 57.007 107.03C55.967 107.41 54.887 107.69 53.767 107.87C52.647 108.07 51.537 108.17 50.437 108.17C48.337 108.17 46.397 107.82 44.617 107.12C42.857 106.4 41.327 105.36 40.027 104C38.747 102.62 37.747 100.92 37.027 98.9C36.307 96.88 35.947 94.56 35.947 91.94C35.947 89.82 36.267 87.84 36.907 86C37.567 84.16 38.507 82.57 39.727 81.23C40.947 79.87 42.437 78.81 44.197 78.05C45.957 77.27 47.937 76.88 50.137 76.88C51.957 76.88 53.637 77.19 55.177 77.81C56.737 78.41 58.077 79.29 59.197 80.45C60.337 81.59 61.227 83.01 61.867 84.71C62.507 86.39 62.827 88.31 62.827 90.47C62.827 91.31 62.737 91.87 62.557 92.15C62.377 92.43 62.037 92.57 61.537 92.57H41.227C41.287 94.49 41.547 96.16 42.007 97.58C42.487 99 43.147 100.19 43.987 101.15C44.827 102.09 45.827 102.8 46.987 103.28C48.147 103.74 49.447 103.97 50.887 103.97C52.227 103.97 53.377 103.82 54.337 103.52C55.317 103.2 56.157 102.86 56.857 102.5C57.557 102.14 58.137 101.81 58.597 101.51C59.077 101.19 59.487 101.03 59.827 101.03C60.267 101.03 60.607 101.2 60.847 101.54L62.347 103.49ZM74.9063 63.56V107.75H69.5662V63.56H74.9063ZM89.0859 63.56V107.75H83.7459V63.56H89.0859ZM110.556 76.88C112.776 76.88 114.776 77.25 116.556 77.99C118.336 78.73 119.856 79.78 121.116 81.14C122.376 82.5 123.336 84.15 123.996 86.09C124.676 88.01 125.016 90.16 125.016 92.54C125.016 94.94 124.676 97.1 123.996 99.02C123.336 100.94 122.376 102.58 121.116 103.94C119.856 105.3 118.336 106.35 116.556 107.09C114.776 107.81 112.776 108.17 110.556 108.17C108.316 108.17 106.296 107.81 104.496 107.09C102.716 106.35 101.196 105.3 99.9356 103.94C98.6756 102.58 97.7056 100.94 97.0256 99.02C96.3656 97.1 96.0356 94.94 96.0356 92.54C96.0356 90.16 96.3656 88.01 97.0256 86.09C97.7056 84.15 98.6756 82.5 99.9356 81.14C101.196 79.78 102.716 78.73 104.496 77.99C106.296 77.25 108.316 76.88 110.556 76.88ZM110.556 104C113.556 104 115.796 103 117.276 101C118.756 98.98 119.496 96.17 119.496 92.57C119.496 88.95 118.756 86.13 117.276 84.11C115.796 82.09 113.556 81.08 110.556 81.08C109.036 81.08 107.706 81.34 106.566 81.86C105.446 82.38 104.506 83.13 103.746 84.11C103.006 85.09 102.446 86.3 102.066 87.74C101.706 89.16 101.526 90.77 101.526 92.57C101.526 96.17 102.266 98.98 103.746 101C105.246 103 107.516 104 110.556 104ZM187.82 77.36L177.98 107.75H173.75C173.23 107.75 172.87 107.41 172.67 106.73L165.95 86.12C165.79 85.66 165.66 85.2 165.56 84.74C165.46 84.26 165.36 83.79 165.26 83.33C165.16 83.79 165.06 84.26 164.96 84.74C164.86 85.2 164.73 85.67 164.57 86.15L157.73 106.73C157.55 107.41 157.15 107.75 156.53 107.75H152.51L142.67 77.36H146.87C147.29 77.36 147.64 77.47 147.92 77.69C148.22 77.91 148.42 78.17 148.52 78.47L154.34 98.03C154.68 99.47 154.95 100.83 155.15 102.11C155.33 101.45 155.51 100.78 155.69 100.1C155.89 99.42 156.1 98.73 156.32 98.03L162.74 78.35C162.84 78.05 163.01 77.8 163.25 77.6C163.51 77.4 163.82 77.3 164.18 77.3H166.52C166.92 77.3 167.25 77.4 167.51 77.6C167.77 77.8 167.95 78.05 168.05 78.35L174.32 98.03C174.54 98.73 174.74 99.42 174.92 100.1C175.1 100.78 175.27 101.45 175.43 102.11C175.53 101.45 175.65 100.79 175.79 100.13C175.95 99.45 176.12 98.75 176.3 98.03L182.24 78.47C182.34 78.15 182.53 77.89 182.81 77.69C183.09 77.47 183.42 77.36 183.8 77.36H187.82ZM205.419 76.88C207.639 76.88 209.639 77.25 211.419 77.99C213.199 78.73 214.719 79.78 215.979 81.14C217.239 82.5 218.199 84.15 218.859 86.09C219.539 88.01 219.879 90.16 219.879 92.54C219.879 94.94 219.539 97.1 218.859 99.02C218.199 100.94 217.239 102.58 215.979 103.94C214.719 105.3 213.199 106.35 211.419 107.09C209.639 107.81 207.639 108.17 205.419 108.17C203.179 108.17 201.159 107.81 199.359 107.09C197.579 106.35 196.059 105.3 194.799 103.94C193.539 102.58 192.569 100.94 191.889 99.02C191.229 97.1 190.899 94.94 190.899 92.54C190.899 90.16 191.229 88.01 191.889 86.09C192.569 84.15 193.539 82.5 194.799 81.14C196.059 79.78 197.579 78.73 199.359 77.99C201.159 77.25 203.179 76.88 205.419 76.88ZM205.419 104C208.419 104 210.659 103 212.139 101C213.619 98.98 214.359 96.17 214.359 92.57C214.359 88.95 213.619 86.13 212.139 84.11C210.659 82.09 208.419 81.08 205.419 81.08C203.899 81.08 202.569 81.34 201.429 81.86C200.309 82.38 199.369 83.13 198.609 84.11C197.869 85.09 197.309 86.3 196.929 87.74C196.569 89.16 196.389 90.77 196.389 92.57C196.389 96.17 197.129 98.98 198.609 101C200.109 103 202.379 104 205.419 104ZM231.722 83.45C232.682 81.37 233.862 79.75 235.262 78.59C236.662 77.41 238.372 76.82 240.392 76.82C241.032 76.82 241.642 76.89 242.222 77.03C242.822 77.17 243.352 77.39 243.812 77.69L243.422 81.68C243.302 82.18 243.002 82.43 242.522 82.43C242.242 82.43 241.832 82.37 241.292 82.25C240.752 82.13 240.142 82.07 239.462 82.07C238.502 82.07 237.642 82.21 236.882 82.49C236.142 82.77 235.472 83.19 234.872 83.75C234.292 84.29 233.762 84.97 233.282 85.79C232.822 86.59 232.402 87.51 232.022 88.55V107.75H226.652V77.36H229.712C230.292 77.36 230.692 77.47 230.912 77.69C231.132 77.91 231.282 78.29 231.362 78.83L231.722 83.45ZM254.027 63.56V107.75H248.687V63.56H254.027ZM282.487 84.59C281.487 83.25 280.407 82.32 279.247 81.8C278.087 81.26 276.787 80.99 275.347 80.99C272.527 80.99 270.357 82 268.837 84.02C267.317 86.04 266.557 88.92 266.557 92.66C266.557 94.64 266.727 96.34 267.067 97.76C267.407 99.16 267.907 100.32 268.567 101.24C269.227 102.14 270.037 102.8 270.997 103.22C271.957 103.64 273.047 103.85 274.267 103.85C276.027 103.85 277.557 103.45 278.857 102.65C280.177 101.85 281.387 100.72 282.487 99.26V84.59ZM287.827 63.56V107.75H284.647C283.887 107.75 283.407 107.38 283.207 106.64L282.727 102.95C281.427 104.51 279.947 105.77 278.287 106.73C276.627 107.69 274.707 108.17 272.527 108.17C270.787 108.17 269.207 107.84 267.787 107.18C266.367 106.5 265.157 105.51 264.157 104.21C263.157 102.91 262.387 101.29 261.847 99.35C261.307 97.41 261.037 95.18 261.037 92.66C261.037 90.42 261.337 88.34 261.937 86.42C262.537 84.48 263.397 82.8 264.517 81.38C265.637 79.96 267.007 78.85 268.627 78.05C270.267 77.23 272.107 76.82 274.147 76.82C276.007 76.82 277.597 77.14 278.917 77.78C280.257 78.4 281.447 79.27 282.487 80.39V63.56H287.827Z" fill="#F94144"/>
<path d="M9.6 105.785C10.9 104.405 12.34 103.305 13.92 102.485C15.5 101.665 17.32 101.255 19.38 101.255C21.04 101.255 22.5 101.535 23.76 102.095C25.04 102.635 26.1 103.415 26.94 104.435C27.8 105.435 28.45 106.645 28.89 108.065C29.33 109.485 29.55 111.055 29.55 112.775V132.125H24.18V112.775C24.18 110.475 23.65 108.695 22.59 107.435C21.55 106.155 19.96 105.515 17.82 105.515C16.24 105.515 14.76 105.895 13.38 106.655C12.02 107.415 10.76 108.445 9.6 109.745V132.125H4.23V87.935H9.6V105.785ZM58.027 113.615C58.027 112.375 57.847 111.245 57.487 110.225C57.147 109.185 56.637 108.295 55.957 107.555C55.297 106.795 54.487 106.215 53.527 105.815C52.567 105.395 51.477 105.185 50.257 105.185C47.697 105.185 45.667 105.935 44.167 107.435C42.687 108.915 41.767 110.975 41.407 113.615H58.027ZM62.347 127.865C61.687 128.665 60.897 129.365 59.977 129.965C59.057 130.545 58.067 131.025 57.007 131.405C55.967 131.785 54.887 132.065 53.767 132.245C52.647 132.445 51.537 132.545 50.437 132.545C48.337 132.545 46.397 132.195 44.617 131.495C42.857 130.775 41.327 129.735 40.027 128.375C38.747 126.995 37.747 125.295 37.027 123.275C36.307 121.255 35.947 118.935 35.947 116.315C35.947 114.195 36.267 112.215 36.907 110.375C37.567 108.535 38.507 106.945 39.727 105.605C40.947 104.245 42.437 103.185 44.197 102.425C45.957 101.645 47.937 101.255 50.137 101.255C51.957 101.255 53.637 101.565 55.177 102.185C56.737 102.785 58.077 103.665 59.197 104.825C60.337 105.965 61.227 107.385 61.867 109.085C62.507 110.765 62.827 112.685 62.827 114.845C62.827 115.685 62.737 116.245 62.557 116.525C62.377 116.805 62.037 116.945 61.537 116.945H41.227C41.287 118.865 41.547 120.535 42.007 121.955C42.487 123.375 43.147 124.565 43.987 125.525C44.827 126.465 45.827 127.175 46.987 127.655C48.147 128.115 49.447 128.345 50.887 128.345C52.227 128.345 53.377 128.195 54.337 127.895C55.317 127.575 56.157 127.235 56.857 126.875C57.557 126.515 58.137 126.185 58.597 125.885C59.077 125.565 59.487 125.405 59.827 125.405C60.267 125.405 60.607 125.575 60.847 125.915L62.347 127.865ZM74.9063 87.935V132.125H69.5662V87.935H74.9063ZM89.0859 87.935V132.125H83.7459V87.935H89.0859ZM110.556 101.255C112.776 101.255 114.776 101.625 116.556 102.365C118.336 103.105 119.856 104.155 121.116 105.515C122.376 106.875 123.336 108.525 123.996 110.465C124.676 112.385 125.016 114.535 125.016 116.915C125.016 119.315 124.676 121.475 123.996 123.395C123.336 125.315 122.376 126.955 121.116 128.315C119.856 129.675 118.336 130.725 116.556 131.465C114.776 132.185 112.776 132.545 110.556 132.545C108.316 132.545 106.296 132.185 104.496 131.465C102.716 130.725 101.196 129.675 99.9356 128.315C98.6756 126.955 97.7056 125.315 97.0256 123.395C96.3656 121.475 96.0356 119.315 96.0356 116.915C96.0356 114.535 96.3656 112.385 97.0256 110.465C97.7056 108.525 98.6756 106.875 99.9356 105.515C101.196 104.155 102.716 103.105 104.496 102.365C106.296 101.625 108.316 101.255 110.556 101.255ZM110.556 128.375C113.556 128.375 115.796 127.375 117.276 125.375C118.756 123.355 119.496 120.545 119.496 116.945C119.496 113.325 118.756 110.505 117.276 108.485C115.796 106.465 113.556 105.455 110.556 105.455C109.036 105.455 107.706 105.715 106.566 106.235C105.446 106.755 104.506 107.505 103.746 108.485C103.006 109.465 102.446 110.675 102.066 112.115C101.706 113.535 101.526 115.145 101.526 116.945C101.526 120.545 102.266 123.355 103.746 125.375C105.246 127.375 107.516 128.375 110.556 128.375ZM187.82 101.735L177.98 132.125H173.75C173.23 132.125 172.87 131.785 172.67 131.105L165.95 110.495C165.79 110.035 165.66 109.575 165.56 109.115C165.46 108.635 165.36 108.165 165.26 107.705C165.16 108.165 165.06 108.635 164.96 109.115C164.86 109.575 164.73 110.045 164.57 110.525L157.73 131.105C157.55 131.785 157.15 132.125 156.53 132.125H152.51L142.67 101.735H146.87C147.29 101.735 147.64 101.845 147.92 102.065C148.22 102.285 148.42 102.545 148.52 102.845L154.34 122.405C154.68 123.845 154.95 125.205 155.15 126.485C155.33 125.825 155.51 125.155 155.69 124.475C155.89 123.795 156.1 123.105 156.32 122.405L162.74 102.725C162.84 102.425 163.01 102.175 163.25 101.975C163.51 101.775 163.82 101.675 164.18 101.675H166.52C166.92 101.675 167.25 101.775 167.51 101.975C167.77 102.175 167.95 102.425 168.05 102.725L174.32 122.405C174.54 123.105 174.74 123.795 174.92 124.475C175.1 125.155 175.27 125.825 175.43 126.485C175.53 125.825 175.65 125.165 175.79 124.505C175.95 123.825 176.12 123.125 176.3 122.405L182.24 102.845C182.34 102.525 182.53 102.265 182.81 102.065C183.09 101.845 183.42 101.735 183.8 101.735H187.82ZM205.419 101.255C207.639 101.255 209.639 101.625 211.419 102.365C213.199 103.105 214.719 104.155 215.979 105.515C217.239 106.875 218.199 108.525 218.859 110.465C219.539 112.385 219.879 114.535 219.879 116.915C219.879 119.315 219.539 121.475 218.859 123.395C218.199 125.315 217.239 126.955 215.979 128.315C214.719 129.675 213.199 130.725 211.419 131.465C209.639 132.185 207.639 132.545 205.419 132.545C203.179 132.545 201.159 132.185 199.359 131.465C197.579 130.725 196.059 129.675 194.799 128.315C193.539 126.955 192.569 125.315 191.889 123.395C191.229 121.475 190.899 119.315 190.899 116.915C190.899 114.535 191.229 112.385 191.889 110.465C192.569 108.525 193.539 106.875 194.799 105.515C196.059 104.155 197.579 103.105 199.359 102.365C201.159 101.625 203.179 101.255 205.419 101.255ZM205.419 128.375C208.419 128.375 210.659 127.375 212.139 125.375C213.619 123.355 214.359 120.545 214.359 116.945C214.359 113.325 213.619 110.505 212.139 108.485C210.659 106.465 208.419 105.455 205.419 105.455C203.899 105.455 202.569 105.715 201.429 106.235C200.309 106.755 199.369 107.505 198.609 108.485C197.869 109.465 197.309 110.675 196.929 112.115C196.569 113.535 196.389 115.145 196.389 116.945C196.389 120.545 197.129 123.355 198.609 125.375C200.109 127.375 202.379 128.375 205.419 128.375ZM231.722 107.825C232.682 105.745 233.862 104.125 235.262 102.965C236.662 101.785 238.372 101.195 240.392 101.195C241.032 101.195 241.642 101.265 242.222 101.405C242.822 101.545 243.352 101.765 243.812 102.065L243.422 106.055C243.302 106.555 243.002 106.805 242.522 106.805C242.242 106.805 241.832 106.745 241.292 106.625C240.752 106.505 240.142 106.445 239.462 106.445C238.502 106.445 237.642 106.585 236.882 106.865C236.142 107.145 235.472 107.565 234.872 108.125C234.292 108.665 233.762 109.345 233.282 110.165C232.822 110.965 232.402 111.885 232.022 112.925V132.125H226.652V101.735H229.712C230.292 101.735 230.692 101.845 230.912 102.065C231.132 102.285 231.282 102.665 231.362 103.205L231.722 107.825ZM254.027 87.935V132.125H248.687V87.935H254.027ZM282.487 108.965C281.487 107.625 280.407 106.695 279.247 106.175C278.087 105.635 276.787 105.365 275.347 105.365C272.527 105.365 270.357 106.375 268.837 108.395C267.317 110.415 266.557 113.295 266.557 117.035C266.557 119.015 266.727 120.715 267.067 122.135C267.407 123.535 267.907 124.695 268.567 125.615C269.227 126.515 270.037 127.175 270.997 127.595C271.957 128.015 273.047 128.225 274.267 128.225C276.027 128.225 277.557 127.825 278.857 127.025C280.177 126.225 281.387 125.095 282.487 123.635V108.965ZM287.827 87.935V132.125H284.647C283.887 132.125 283.407 131.755 283.207 131.015L282.727 127.325C281.427 128.885 279.947 130.145 278.287 131.105C276.627 132.065 274.707 132.545 272.527 132.545C270.787 132.545 269.207 132.215 267.787 131.555C266.367 130.875 265.157 129.885 264.157 128.585C263.157 127.285 262.387 125.665 261.847 123.725C261.307 121.785 261.037 119.555 261.037 117.035C261.037 114.795 261.337 112.715 261.937 110.795C262.537 108.855 263.397 107.175 264.517 105.755C265.637 104.335 267.007 103.225 268.627 102.425C270.267 101.605 272.107 101.195 274.147 101.195C276.007 101.195 277.597 101.515 278.917 102.155C280.257 102.775 281.447 103.645 282.487 104.765V87.935H287.827Z" fill="#F9844A"/>
<path d="M9.6 130.16C10.9 128.78 12.34 127.68 13.92 126.86C15.5 126.04 17.32 125.63 19.38 125.63C21.04 125.63 22.5 125.91 23.76 126.47C25.04 127.01 26.1 127.79 26.94 128.81C27.8 129.81 28.45 131.02 28.89 132.44C29.33 133.86 29.55 135.43 29.55 137.15V156.5H24.18V137.15C24.18 134.85 23.65 133.07 22.59 131.81C21.55 130.53 19.96 129.89 17.82 129.89C16.24 129.89 14.76 130.27 13.38 131.03C12.02 131.79 10.76 132.82 9.6 134.12V156.5H4.23V112.31H9.6V130.16ZM58.027 137.99C58.027 136.75 57.847 135.62 57.487 134.6C57.147 133.56 56.637 132.67 55.957 131.93C55.297 131.17 54.487 130.59 53.527 130.19C52.567 129.77 51.477 129.56 50.257 129.56C47.697 129.56 45.667 130.31 44.167 131.81C42.687 133.29 41.767 135.35 41.407 137.99H58.027ZM62.347 152.24C61.687 153.04 60.897 153.74 59.977 154.34C59.057 154.92 58.067 155.4 57.007 155.78C55.967 156.16 54.887 156.44 53.767 156.62C52.647 156.82 51.537 156.92 50.437 156.92C48.337 156.92 46.397 156.57 44.617 155.87C42.857 155.15 41.327 154.11 40.027 152.75C38.747 151.37 37.747 149.67 37.027 147.65C36.307 145.63 35.947 143.31 35.947 140.69C35.947 138.57 36.267 136.59 36.907 134.75C37.567 132.91 38.507 131.32 39.727 129.98C40.947 128.62 42.437 127.56 44.197 126.8C45.957 126.02 47.937 125.63 50.137 125.63C51.957 125.63 53.637 125.94 55.177 126.56C56.737 127.16 58.077 128.04 59.197 129.2C60.337 130.34 61.227 131.76 61.867 133.46C62.507 135.14 62.827 137.06 62.827 139.22C62.827 140.06 62.737 140.62 62.557 140.9C62.377 141.18 62.037 141.32 61.537 141.32H41.227C41.287 143.24 41.547 144.91 42.007 146.33C42.487 147.75 43.147 148.94 43.987 149.9C44.827 150.84 45.827 151.55 46.987 152.03C48.147 152.49 49.447 152.72 50.887 152.72C52.227 152.72 53.377 152.57 54.337 152.27C55.317 151.95 56.157 151.61 56.857 151.25C57.557 150.89 58.137 150.56 58.597 150.26C59.077 149.94 59.487 149.78 59.827 149.78C60.267 149.78 60.607 149.95 60.847 150.29L62.347 152.24ZM74.9063 112.31V156.5H69.5662V112.31H74.9063ZM89.0859 112.31V156.5H83.7459V112.31H89.0859ZM110.556 125.63C112.776 125.63 114.776 126 116.556 126.74C118.336 127.48 119.856 128.53 121.116 129.89C122.376 131.25 123.336 132.9 123.996 134.84C124.676 136.76 125.016 138.91 125.016 141.29C125.016 143.69 124.676 145.85 123.996 147.77C123.336 149.69 122.376 151.33 121.116 152.69C119.856 154.05 118.336 155.1 116.556 155.84C114.776 156.56 112.776 156.92 110.556 156.92C108.316 156.92 106.296 156.56 104.496 155.84C102.716 155.1 101.196 154.05 99.9356 152.69C98.6756 151.33 97.7056 149.69 97.0256 147.77C96.3656 145.85 96.0356 143.69 96.0356 141.29C96.0356 138.91 96.3656 136.76 97.0256 134.84C97.7056 132.9 98.6756 131.25 99.9356 129.89C101.196 128.53 102.716 127.48 104.496 126.74C106.296 126 108.316 125.63 110.556 125.63ZM110.556 152.75C113.556 152.75 115.796 151.75 117.276 149.75C118.756 147.73 119.496 144.92 119.496 141.32C119.496 137.7 118.756 134.88 117.276 132.86C115.796 130.84 113.556 129.83 110.556 129.83C109.036 129.83 107.706 130.09 106.566 130.61C105.446 131.13 104.506 131.88 103.746 132.86C103.006 133.84 102.446 135.05 102.066 136.49C101.706 137.91 101.526 139.52 101.526 141.32C101.526 144.92 102.266 147.73 103.746 149.75C105.246 151.75 107.516 152.75 110.556 152.75ZM187.82 126.11L177.98 156.5H173.75C173.23 156.5 172.87 156.16 172.67 155.48L165.95 134.87C165.79 134.41 165.66 133.95 165.56 133.49C165.46 133.01 165.36 132.54 165.26 132.08C165.16 132.54 165.06 133.01 164.96 133.49C164.86 133.95 164.73 134.42 164.57 134.9L157.73 155.48C157.55 156.16 157.15 156.5 156.53 156.5H152.51L142.67 126.11H146.87C147.29 126.11 147.64 126.22 147.92 126.44C148.22 126.66 148.42 126.92 148.52 127.22L154.34 146.78C154.68 148.22 154.95 149.58 155.15 150.86C155.33 150.2 155.51 149.53 155.69 148.85C155.89 148.17 156.1 147.48 156.32 146.78L162.74 127.1C162.84 126.8 163.01 126.55 163.25 126.35C163.51 126.15 163.82 126.05 164.18 126.05H166.52C166.92 126.05 167.25 126.15 167.51 126.35C167.77 126.55 167.95 126.8 168.05 127.1L174.32 146.78C174.54 147.48 174.74 148.17 174.92 148.85C175.1 149.53 175.27 150.2 175.43 150.86C175.53 150.2 175.65 149.54 175.79 148.88C175.95 148.2 176.12 147.5 176.3 146.78L182.24 127.22C182.34 126.9 182.53 126.64 182.81 126.44C183.09 126.22 183.42 126.11 183.8 126.11H187.82ZM205.419 125.63C207.639 125.63 209.639 126 211.419 126.74C213.199 127.48 214.719 128.53 215.979 129.89C217.239 131.25 218.199 132.9 218.859 134.84C219.539 136.76 219.879 138.91 219.879 141.29C219.879 143.69 219.539 145.85 218.859 147.77C218.199 149.69 217.239 151.33 215.979 152.69C214.719 154.05 213.199 155.1 211.419 155.84C209.639 156.56 207.639 156.92 205.419 156.92C203.179 156.92 201.159 156.56 199.359 155.84C197.579 155.1 196.059 154.05 194.799 152.69C193.539 151.33 192.569 149.69 191.889 147.77C191.229 145.85 190.899 143.69 190.899 141.29C190.899 138.91 191.229 136.76 191.889 134.84C192.569 132.9 193.539 131.25 194.799 129.89C196.059 128.53 197.579 127.48 199.359 126.74C201.159 126 203.179 125.63 205.419 125.63ZM205.419 152.75C208.419 152.75 210.659 151.75 212.139 149.75C213.619 147.73 214.359 144.92 214.359 141.32C214.359 137.7 213.619 134.88 212.139 132.86C210.659 130.84 208.419 129.83 205.419 129.83C203.899 129.83 202.569 130.09 201.429 130.61C200.309 131.13 199.369 131.88 198.609 132.86C197.869 133.84 197.309 135.05 196.929 136.49C196.569 137.91 196.389 139.52 196.389 141.32C196.389 144.92 197.129 147.73 198.609 149.75C200.109 151.75 202.379 152.75 205.419 152.75ZM231.722 132.2C232.682 130.12 233.862 128.5 235.262 127.34C236.662 126.16 238.372 125.57 240.392 125.57C241.032 125.57 241.642 125.64 242.222 125.78C242.822 125.92 243.352 126.14 243.812 126.44L243.422 130.43C243.302 130.93 243.002 131.18 242.522 131.18C242.242 131.18 241.832 131.12 241.292 131C240.752 130.88 240.142 130.82 239.462 130.82C238.502 130.82 237.642 130.96 236.882 131.24C236.142 131.52 235.472 131.94 234.872 132.5C234.292 133.04 233.762 133.72 233.282 134.54C232.822 135.34 232.402 136.26 232.022 137.3V156.5H226.652V126.11H229.712C230.292 126.11 230.692 126.22 230.912 126.44C231.132 126.66 231.282 127.04 231.362 127.58L231.722 132.2ZM254.027 112.31V156.5H248.687V112.31H254.027ZM282.487 133.34C281.487 132 280.407 131.07 279.247 130.55C278.087 130.01 276.787 129.74 275.347 129.74C272.527 129.74 270.357 130.75 268.837 132.77C267.317 134.79 266.557 137.67 266.557 141.41C266.557 143.39 266.727 145.09 267.067 146.51C267.407 147.91 267.907 149.07 268.567 149.99C269.227 150.89 270.037 151.55 270.997 151.97C271.957 152.39 273.047 152.6 274.267 152.6C276.027 152.6 277.557 152.2 278.857 151.4C280.177 150.6 281.387 149.47 282.487 148.01V133.34ZM287.827 112.31V156.5H284.647C283.887 156.5 283.407 156.13 283.207 155.39L282.727 151.7C281.427 153.26 279.947 154.52 278.287 155.48C276.627 156.44 274.707 156.92 272.527 156.92C270.787 156.92 269.207 156.59 267.787 155.93C266.367 155.25 265.157 154.26 264.157 152.96C263.157 151.66 262.387 150.04 261.847 148.1C261.307 146.16 261.037 143.93 261.037 141.41C261.037 139.17 261.337 137.09 261.937 135.17C262.537 133.23 263.397 131.55 264.517 130.13C265.637 128.71 267.007 127.6 268.627 126.8C270.267 125.98 272.107 125.57 274.147 125.57C276.007 125.57 277.597 125.89 278.917 126.53C280.257 127.15 281.447 128.02 282.487 129.14V112.31H287.827Z" fill="#F9C74F"/>
</svg>
