<svg width="53" height="50" viewBox="0 0 53 50" fill="none" xmlns="http://www.w3.org/2000/svg">
<circle cx="27.9092" cy="25" r="25" fill="#ADCAD7"/>
<circle cx="25" cy="25" r="25" fill="#277DA1"/>
<path d="M7.47314 20.635V28H6.58314V20.635H7.47314ZM11.6614 25.72C11.2514 25.7333 10.9014 25.7667 10.6114 25.82C10.3248 25.87 10.0898 25.9367 9.90643 26.02C9.72643 26.1033 9.59476 26.2017 9.51143 26.315C9.43143 26.4283 9.39143 26.555 9.39143 26.695C9.39143 26.8283 9.41309 26.9433 9.45643 27.04C9.49976 27.1367 9.55809 27.2167 9.63143 27.28C9.70809 27.34 9.79643 27.385 9.89643 27.415C9.99976 27.4417 10.1098 27.455 10.2264 27.455C10.3831 27.455 10.5264 27.44 10.6564 27.41C10.7864 27.3767 10.9081 27.33 11.0214 27.27C11.1381 27.21 11.2481 27.1383 11.3514 27.055C11.4581 26.9717 11.5614 26.8767 11.6614 26.77V25.72ZM8.78643 23.65C9.06643 23.38 9.36809 23.1783 9.69143 23.045C10.0148 22.9117 10.3731 22.845 10.7664 22.845C11.0498 22.845 11.3014 22.8917 11.5214 22.985C11.7414 23.0783 11.9264 23.2083 12.0764 23.375C12.2264 23.5417 12.3398 23.7433 12.4164 23.98C12.4931 24.2167 12.5314 24.4767 12.5314 24.76V28H12.1364C12.0498 28 11.9831 27.9867 11.9364 27.96C11.8898 27.93 11.8531 27.8733 11.8264 27.79L11.7264 27.31C11.5931 27.4333 11.4631 27.5433 11.3364 27.64C11.2098 27.7333 11.0764 27.8133 10.9364 27.88C10.7964 27.9433 10.6464 27.9917 10.4864 28.025C10.3298 28.0617 10.1548 28.08 9.96143 28.08C9.76476 28.08 9.57976 28.0533 9.40643 28C9.23309 27.9433 9.08143 27.86 8.95143 27.75C8.82476 27.64 8.72309 27.5017 8.64643 27.335C8.57309 27.165 8.53643 26.965 8.53643 26.735C8.53643 26.535 8.59143 26.3433 8.70143 26.16C8.81143 25.9733 8.98976 25.8083 9.23643 25.665C9.48309 25.5217 9.80476 25.405 10.2014 25.315C10.5981 25.2217 11.0848 25.1683 11.6614 25.155V24.76C11.6614 24.3667 11.5764 24.07 11.4064 23.87C11.2364 23.6667 10.9881 23.565 10.6614 23.565C10.4414 23.565 10.2564 23.5933 10.1064 23.65C9.95976 23.7033 9.83143 23.765 9.72143 23.835C9.61476 23.9017 9.52143 23.9633 9.44143 24.02C9.36476 24.0733 9.28809 24.1 9.21143 24.1C9.15143 24.1 9.09976 24.085 9.05643 24.055C9.01309 24.0217 8.97643 23.9817 8.94643 23.935L8.78643 23.65ZM14.7271 23.67C14.8371 23.5467 14.9538 23.435 15.0771 23.335C15.2005 23.235 15.3305 23.15 15.4671 23.08C15.6071 23.0067 15.7538 22.9517 15.9071 22.915C16.0638 22.875 16.2321 22.855 16.4121 22.855C16.6888 22.855 16.9321 22.9017 17.1421 22.995C17.3555 23.085 17.5321 23.215 17.6721 23.385C17.8155 23.5517 17.9238 23.7533 17.9971 23.99C18.0705 24.2267 18.1071 24.4883 18.1071 24.775V28H17.2121V24.775C17.2121 24.3917 17.1238 24.095 16.9471 23.885C16.7738 23.6717 16.5088 23.565 16.1521 23.565C15.8888 23.565 15.6421 23.6283 15.4121 23.755C15.1855 23.8817 14.9755 24.0533 14.7821 24.27V28H13.8871V22.935H14.4221C14.5488 22.935 14.6271 22.9967 14.6571 23.12L14.7271 23.67ZM21.2283 25.525C21.4083 25.525 21.5666 25.5 21.7033 25.45C21.84 25.4 21.955 25.33 22.0483 25.24C22.1416 25.15 22.2116 25.0433 22.2583 24.92C22.305 24.7933 22.3283 24.655 22.3283 24.505C22.3283 24.195 22.2333 23.9483 22.0433 23.765C21.8566 23.5817 21.585 23.49 21.2283 23.49C20.8683 23.49 20.5933 23.5817 20.4033 23.765C20.2166 23.9483 20.1233 24.195 20.1233 24.505C20.1233 24.655 20.1466 24.7933 20.1933 24.92C20.2433 25.0433 20.315 25.15 20.4083 25.24C20.5016 25.33 20.6166 25.4 20.7533 25.45C20.89 25.5 21.0483 25.525 21.2283 25.525ZM22.8333 28.275C22.8333 28.1517 22.7983 28.0517 22.7283 27.975C22.6583 27.8983 22.5633 27.8383 22.4433 27.795C22.3266 27.7517 22.19 27.7217 22.0333 27.705C21.8766 27.685 21.71 27.67 21.5333 27.66C21.36 27.65 21.1833 27.64 21.0033 27.63C20.8233 27.62 20.65 27.6033 20.4833 27.58C20.2966 27.6667 20.1433 27.7767 20.0233 27.91C19.9066 28.04 19.8483 28.1933 19.8483 28.37C19.8483 28.4833 19.8766 28.5883 19.9333 28.685C19.9933 28.785 20.0833 28.87 20.2033 28.94C20.3233 29.0133 20.4733 29.07 20.6533 29.11C20.8366 29.1533 21.0516 29.175 21.2983 29.175C21.5383 29.175 21.7533 29.1533 21.9433 29.11C22.1333 29.0667 22.2933 29.005 22.4233 28.925C22.5566 28.845 22.6583 28.75 22.7283 28.64C22.7983 28.53 22.8333 28.4083 22.8333 28.275ZM23.7383 23.135V23.465C23.7383 23.575 23.6683 23.645 23.5283 23.675L22.9533 23.75C23.0666 23.97 23.1233 24.2133 23.1233 24.48C23.1233 24.7267 23.075 24.9517 22.9783 25.155C22.885 25.355 22.755 25.5267 22.5883 25.67C22.4216 25.8133 22.2216 25.9233 21.9883 26C21.755 26.0767 21.5016 26.115 21.2283 26.115C20.9916 26.115 20.7683 26.0867 20.5583 26.03C20.4516 26.0967 20.37 26.1683 20.3133 26.245C20.2566 26.3183 20.2283 26.3933 20.2283 26.47C20.2283 26.59 20.2766 26.6817 20.3733 26.745C20.4733 26.805 20.6033 26.8483 20.7633 26.875C20.9233 26.9017 21.105 26.9183 21.3083 26.925C21.515 26.9317 21.725 26.9433 21.9383 26.96C22.155 26.9733 22.365 26.9983 22.5683 27.035C22.775 27.0717 22.9583 27.1317 23.1183 27.215C23.2783 27.2983 23.4066 27.4133 23.5033 27.56C23.6033 27.7067 23.6533 27.8967 23.6533 28.13C23.6533 28.3467 23.5983 28.5567 23.4883 28.76C23.3816 28.9633 23.2266 29.1433 23.0233 29.3C22.82 29.46 22.57 29.5867 22.2733 29.68C21.98 29.7767 21.6483 29.825 21.2783 29.825C20.9083 29.825 20.585 29.7883 20.3083 29.715C20.0316 29.6417 19.8016 29.5433 19.6183 29.42C19.435 29.2967 19.2966 29.1533 19.2033 28.99C19.1133 28.83 19.0683 28.6617 19.0683 28.485C19.0683 28.235 19.1466 28.0233 19.3033 27.85C19.46 27.6767 19.675 27.5383 19.9483 27.435C19.7983 27.3683 19.6783 27.28 19.5883 27.17C19.5016 27.0567 19.4583 26.905 19.4583 26.715C19.4583 26.6417 19.4716 26.5667 19.4983 26.49C19.525 26.41 19.565 26.3317 19.6183 26.255C19.675 26.175 19.7433 26.1 19.8233 26.03C19.9033 25.96 19.9966 25.8983 20.1033 25.845C19.8533 25.705 19.6583 25.52 19.5183 25.29C19.3783 25.0567 19.3083 24.7867 19.3083 24.48C19.3083 24.2333 19.355 24.01 19.4483 23.81C19.545 23.6067 19.6783 23.435 19.8483 23.295C20.0183 23.1517 20.22 23.0417 20.4533 22.965C20.69 22.8883 20.9483 22.85 21.2283 22.85C21.4483 22.85 21.6533 22.875 21.8433 22.925C22.0333 22.9717 22.2066 23.0417 22.3633 23.135H23.7383ZM28.8236 22.935V28H28.2936C28.1669 28 28.0869 27.9383 28.0536 27.815L27.9836 27.27C27.7636 27.5133 27.5169 27.71 27.2436 27.86C26.9703 28.0067 26.6569 28.08 26.3036 28.08C26.0269 28.08 25.7819 28.035 25.5686 27.945C25.3586 27.8517 25.1819 27.7217 25.0386 27.555C24.8953 27.3883 24.7869 27.1867 24.7136 26.95C24.6436 26.7133 24.6086 26.4517 24.6086 26.165V22.935H25.4986V26.165C25.4986 26.5483 25.5853 26.845 25.7586 27.055C25.9353 27.265 26.2036 27.37 26.5636 27.37C26.8269 27.37 27.0719 27.3083 27.2986 27.185C27.5286 27.0583 27.7403 26.885 27.9336 26.665V22.935H28.8236ZM32.9798 25.72C32.5698 25.7333 32.2198 25.7667 31.9298 25.82C31.6431 25.87 31.4081 25.9367 31.2248 26.02C31.0448 26.1033 30.9131 26.2017 30.8298 26.315C30.7498 26.4283 30.7098 26.555 30.7098 26.695C30.7098 26.8283 30.7315 26.9433 30.7748 27.04C30.8181 27.1367 30.8765 27.2167 30.9498 27.28C31.0265 27.34 31.1148 27.385 31.2148 27.415C31.3181 27.4417 31.4281 27.455 31.5448 27.455C31.7015 27.455 31.8448 27.44 31.9748 27.41C32.1048 27.3767 32.2265 27.33 32.3398 27.27C32.4565 27.21 32.5665 27.1383 32.6698 27.055C32.7765 26.9717 32.8798 26.8767 32.9798 26.77V25.72ZM30.1048 23.65C30.3848 23.38 30.6865 23.1783 31.0098 23.045C31.3331 22.9117 31.6915 22.845 32.0848 22.845C32.3681 22.845 32.6198 22.8917 32.8398 22.985C33.0598 23.0783 33.2448 23.2083 33.3948 23.375C33.5448 23.5417 33.6581 23.7433 33.7348 23.98C33.8115 24.2167 33.8498 24.4767 33.8498 24.76V28H33.4548C33.3681 28 33.3015 27.9867 33.2548 27.96C33.2081 27.93 33.1715 27.8733 33.1448 27.79L33.0448 27.31C32.9115 27.4333 32.7815 27.5433 32.6548 27.64C32.5281 27.7333 32.3948 27.8133 32.2548 27.88C32.1148 27.9433 31.9648 27.9917 31.8048 28.025C31.6481 28.0617 31.4731 28.08 31.2798 28.08C31.0831 28.08 30.8981 28.0533 30.7248 28C30.5515 27.9433 30.3998 27.86 30.2698 27.75C30.1431 27.64 30.0415 27.5017 29.9648 27.335C29.8915 27.165 29.8548 26.965 29.8548 26.735C29.8548 26.535 29.9098 26.3433 30.0198 26.16C30.1298 25.9733 30.3081 25.8083 30.5548 25.665C30.8015 25.5217 31.1231 25.405 31.5198 25.315C31.9165 25.2217 32.4031 25.1683 32.9798 25.155V24.76C32.9798 24.3667 32.8948 24.07 32.7248 23.87C32.5548 23.6667 32.3065 23.565 31.9798 23.565C31.7598 23.565 31.5748 23.5933 31.4248 23.65C31.2781 23.7033 31.1498 23.765 31.0398 23.835C30.9331 23.9017 30.8398 23.9633 30.7598 24.02C30.6831 24.0733 30.6065 24.1 30.5298 24.1C30.4698 24.1 30.4181 24.085 30.3748 24.055C30.3315 24.0217 30.2948 23.9817 30.2648 23.935L30.1048 23.65ZM36.9705 25.525C37.1505 25.525 37.3088 25.5 37.4455 25.45C37.5822 25.4 37.6972 25.33 37.7905 25.24C37.8838 25.15 37.9538 25.0433 38.0005 24.92C38.0472 24.7933 38.0705 24.655 38.0705 24.505C38.0705 24.195 37.9755 23.9483 37.7855 23.765C37.5988 23.5817 37.3272 23.49 36.9705 23.49C36.6105 23.49 36.3355 23.5817 36.1455 23.765C35.9588 23.9483 35.8655 24.195 35.8655 24.505C35.8655 24.655 35.8888 24.7933 35.9355 24.92C35.9855 25.0433 36.0572 25.15 36.1505 25.24C36.2438 25.33 36.3588 25.4 36.4955 25.45C36.6322 25.5 36.7905 25.525 36.9705 25.525ZM38.5755 28.275C38.5755 28.1517 38.5405 28.0517 38.4705 27.975C38.4005 27.8983 38.3055 27.8383 38.1855 27.795C38.0688 27.7517 37.9322 27.7217 37.7755 27.705C37.6188 27.685 37.4522 27.67 37.2755 27.66C37.1022 27.65 36.9255 27.64 36.7455 27.63C36.5655 27.62 36.3922 27.6033 36.2255 27.58C36.0388 27.6667 35.8855 27.7767 35.7655 27.91C35.6488 28.04 35.5905 28.1933 35.5905 28.37C35.5905 28.4833 35.6188 28.5883 35.6755 28.685C35.7355 28.785 35.8255 28.87 35.9455 28.94C36.0655 29.0133 36.2155 29.07 36.3955 29.11C36.5788 29.1533 36.7938 29.175 37.0405 29.175C37.2805 29.175 37.4955 29.1533 37.6855 29.11C37.8755 29.0667 38.0355 29.005 38.1655 28.925C38.2988 28.845 38.4005 28.75 38.4705 28.64C38.5405 28.53 38.5755 28.4083 38.5755 28.275ZM39.4805 23.135V23.465C39.4805 23.575 39.4105 23.645 39.2705 23.675L38.6955 23.75C38.8088 23.97 38.8655 24.2133 38.8655 24.48C38.8655 24.7267 38.8172 24.9517 38.7205 25.155C38.6272 25.355 38.4972 25.5267 38.3305 25.67C38.1638 25.8133 37.9638 25.9233 37.7305 26C37.4972 26.0767 37.2438 26.115 36.9705 26.115C36.7338 26.115 36.5105 26.0867 36.3005 26.03C36.1938 26.0967 36.1122 26.1683 36.0555 26.245C35.9988 26.3183 35.9705 26.3933 35.9705 26.47C35.9705 26.59 36.0188 26.6817 36.1155 26.745C36.2155 26.805 36.3455 26.8483 36.5055 26.875C36.6655 26.9017 36.8472 26.9183 37.0505 26.925C37.2572 26.9317 37.4672 26.9433 37.6805 26.96C37.8972 26.9733 38.1072 26.9983 38.3105 27.035C38.5172 27.0717 38.7005 27.1317 38.8605 27.215C39.0205 27.2983 39.1488 27.4133 39.2455 27.56C39.3455 27.7067 39.3955 27.8967 39.3955 28.13C39.3955 28.3467 39.3405 28.5567 39.2305 28.76C39.1238 28.9633 38.9688 29.1433 38.7655 29.3C38.5622 29.46 38.3122 29.5867 38.0155 29.68C37.7222 29.7767 37.3905 29.825 37.0205 29.825C36.6505 29.825 36.3272 29.7883 36.0505 29.715C35.7738 29.6417 35.5438 29.5433 35.3605 29.42C35.1772 29.2967 35.0388 29.1533 34.9455 28.99C34.8555 28.83 34.8105 28.6617 34.8105 28.485C34.8105 28.235 34.8888 28.0233 35.0455 27.85C35.2022 27.6767 35.4172 27.5383 35.6905 27.435C35.5405 27.3683 35.4205 27.28 35.3305 27.17C35.2438 27.0567 35.2005 26.905 35.2005 26.715C35.2005 26.6417 35.2138 26.5667 35.2405 26.49C35.2672 26.41 35.3072 26.3317 35.3605 26.255C35.4172 26.175 35.4855 26.1 35.5655 26.03C35.6455 25.96 35.7388 25.8983 35.8455 25.845C35.5955 25.705 35.4005 25.52 35.2605 25.29C35.1205 25.0567 35.0505 24.7867 35.0505 24.48C35.0505 24.2333 35.0972 24.01 35.1905 23.81C35.2872 23.6067 35.4205 23.435 35.5905 23.295C35.7605 23.1517 35.9622 23.0417 36.1955 22.965C36.4322 22.8883 36.6905 22.85 36.9705 22.85C37.1905 22.85 37.3955 22.875 37.5855 22.925C37.7755 22.9717 37.9488 23.0417 38.1055 23.135H39.4805ZM43.7127 24.915C43.7127 24.7083 43.6827 24.52 43.6227 24.35C43.566 24.1767 43.481 24.0283 43.3677 23.905C43.2577 23.7783 43.1227 23.6817 42.9627 23.615C42.8027 23.545 42.621 23.51 42.4177 23.51C41.991 23.51 41.6527 23.635 41.4027 23.885C41.156 24.1317 41.0027 24.475 40.9427 24.915H43.7127ZM44.4327 27.29C44.3227 27.4233 44.191 27.54 44.0377 27.64C43.8843 27.7367 43.7193 27.8167 43.5427 27.88C43.3693 27.9433 43.1893 27.99 43.0027 28.02C42.816 28.0533 42.631 28.07 42.4477 28.07C42.0977 28.07 41.7743 28.0117 41.4777 27.895C41.1843 27.775 40.9293 27.6017 40.7127 27.375C40.4993 27.145 40.3327 26.8617 40.2127 26.525C40.0927 26.1883 40.0327 25.8017 40.0327 25.365C40.0327 25.0117 40.086 24.6817 40.1927 24.375C40.3027 24.0683 40.4593 23.8033 40.6627 23.58C40.866 23.3533 41.1143 23.1767 41.4077 23.05C41.701 22.92 42.031 22.855 42.3977 22.855C42.701 22.855 42.981 22.9067 43.2377 23.01C43.4977 23.11 43.721 23.2567 43.9077 23.45C44.0977 23.64 44.246 23.8767 44.3527 24.16C44.4593 24.44 44.5127 24.76 44.5127 25.12C44.5127 25.26 44.4977 25.3533 44.4677 25.4C44.4377 25.4467 44.381 25.47 44.2977 25.47H40.9127C40.9227 25.79 40.966 26.0683 41.0427 26.305C41.1227 26.5417 41.2327 26.74 41.3727 26.9C41.5127 27.0567 41.6793 27.175 41.8727 27.255C42.066 27.3317 42.2827 27.37 42.5227 27.37C42.746 27.37 42.9377 27.345 43.0977 27.295C43.261 27.2417 43.401 27.185 43.5177 27.125C43.6343 27.065 43.731 27.01 43.8077 26.96C43.8877 26.9067 43.956 26.88 44.0127 26.88C44.086 26.88 44.1427 26.9083 44.1827 26.965L44.4327 27.29Z" fill="white"/>
</svg>
