<svg width="55" height="50" viewBox="0 0 55 50" fill="none" xmlns="http://www.w3.org/2000/svg">
<circle cx="29.8872" cy="25" r="25" fill="#FFE5A8"/>
<circle cx="26.9438" cy="25" r="25" fill="#F9C74F"/>
<path d="M5.33479 28.08C4.93479 28.08 4.62646 27.9683 4.40979 27.745C4.19646 27.5217 4.08979 27.2 4.08979 26.78V23.68H3.47979C3.42646 23.68 3.38146 23.665 3.34479 23.635C3.30813 23.6017 3.28979 23.5517 3.28979 23.485V23.13L4.11979 23.025L4.32479 21.46C4.33479 21.41 4.35646 21.37 4.38979 21.34C4.42646 21.3067 4.47313 21.29 4.52979 21.29H4.97979V23.035H6.44479V23.68H4.97979V26.72C4.97979 26.9333 5.03146 27.0917 5.13479 27.195C5.23813 27.2983 5.37146 27.35 5.53479 27.35C5.62813 27.35 5.70813 27.3383 5.77479 27.315C5.84479 27.2883 5.90479 27.26 5.95479 27.23C6.00479 27.2 6.04646 27.1733 6.07979 27.15C6.11646 27.1233 6.14813 27.11 6.17479 27.11C6.22146 27.11 6.26313 27.1383 6.29979 27.195L6.55979 27.62C6.40646 27.7633 6.22146 27.8767 6.00479 27.96C5.78813 28.04 5.56479 28.08 5.33479 28.08ZM10.7245 24.915C10.7245 24.7083 10.6945 24.52 10.6345 24.35C10.5778 24.1767 10.4928 24.0283 10.3795 23.905C10.2695 23.7783 10.1345 23.6817 9.97448 23.615C9.81448 23.545 9.63281 23.51 9.42948 23.51C9.00281 23.51 8.66448 23.635 8.41448 23.885C8.16781 24.1317 8.01448 24.475 7.95448 24.915H10.7245ZM11.4445 27.29C11.3345 27.4233 11.2028 27.54 11.0495 27.64C10.8961 27.7367 10.7311 27.8167 10.5545 27.88C10.3811 27.9433 10.2011 27.99 10.0145 28.02C9.82781 28.0533 9.64281 28.07 9.45948 28.07C9.10948 28.07 8.78615 28.0117 8.48948 27.895C8.19615 27.775 7.94115 27.6017 7.72448 27.375C7.51115 27.145 7.34448 26.8617 7.22448 26.525C7.10448 26.1883 7.04448 25.8017 7.04448 25.365C7.04448 25.0117 7.09781 24.6817 7.20448 24.375C7.31448 24.0683 7.47115 23.8033 7.67448 23.58C7.87781 23.3533 8.12615 23.1767 8.41948 23.05C8.71281 22.92 9.04281 22.855 9.40948 22.855C9.71281 22.855 9.99281 22.9067 10.2495 23.01C10.5095 23.11 10.7328 23.2567 10.9195 23.45C11.1095 23.64 11.2578 23.8767 11.3645 24.16C11.4711 24.44 11.5245 24.76 11.5245 25.12C11.5245 25.26 11.5095 25.3533 11.4795 25.4C11.4495 25.4467 11.3928 25.47 11.3095 25.47H7.92448C7.93448 25.79 7.97781 26.0683 8.05448 26.305C8.13448 26.5417 8.24448 26.74 8.38448 26.9C8.52448 27.0567 8.69115 27.175 8.88448 27.255C9.07781 27.3317 9.29448 27.37 9.53448 27.37C9.75781 27.37 9.94948 27.345 10.1095 27.295C10.2728 27.2417 10.4128 27.185 10.5295 27.125C10.6461 27.065 10.7428 27.01 10.8195 26.96C10.8995 26.9067 10.9678 26.88 11.0245 26.88C11.0978 26.88 11.1545 26.9083 11.1945 26.965L11.4445 27.29ZM16.1427 23.835C16.116 23.8717 16.0894 23.9 16.0627 23.92C16.036 23.94 15.9994 23.95 15.9527 23.95C15.9027 23.95 15.8477 23.93 15.7877 23.89C15.7277 23.8467 15.6527 23.8 15.5627 23.75C15.476 23.7 15.3677 23.655 15.2377 23.615C15.111 23.5717 14.9544 23.55 14.7677 23.55C14.5177 23.55 14.2977 23.595 14.1077 23.685C13.9177 23.7717 13.7577 23.8983 13.6277 24.065C13.501 24.2317 13.4044 24.4333 13.3377 24.67C13.2744 24.9067 13.2427 25.1717 13.2427 25.465C13.2427 25.7717 13.2777 26.045 13.3477 26.285C13.4177 26.5217 13.516 26.7217 13.6427 26.885C13.7727 27.045 13.9277 27.1683 14.1077 27.255C14.291 27.3383 14.496 27.38 14.7227 27.38C14.9394 27.38 15.1177 27.355 15.2577 27.305C15.3977 27.2517 15.5127 27.1933 15.6027 27.13C15.696 27.0667 15.7727 27.01 15.8327 26.96C15.896 26.9067 15.9577 26.88 16.0177 26.88C16.091 26.88 16.1477 26.9083 16.1877 26.965L16.4377 27.29C16.3277 27.4267 16.2027 27.5433 16.0627 27.64C15.9227 27.7367 15.771 27.8183 15.6077 27.885C15.4477 27.9483 15.2794 27.995 15.1027 28.025C14.926 28.055 14.746 28.07 14.5627 28.07C14.246 28.07 13.951 28.0117 13.6777 27.895C13.4077 27.7783 13.1727 27.61 12.9727 27.39C12.7727 27.1667 12.616 26.8933 12.5027 26.57C12.3894 26.2467 12.3327 25.8783 12.3327 25.465C12.3327 25.0883 12.3844 24.74 12.4877 24.42C12.5944 24.1 12.7477 23.825 12.9477 23.595C13.151 23.3617 13.3994 23.18 13.6927 23.05C13.9894 22.92 14.3294 22.855 14.7127 22.855C15.0694 22.855 15.3827 22.9133 15.6527 23.03C15.926 23.1433 16.1677 23.305 16.3777 23.515L16.1427 23.835ZM18.2881 23.61C18.5047 23.38 18.7447 23.1967 19.0081 23.06C19.2714 22.9233 19.5747 22.855 19.9181 22.855C20.1947 22.855 20.4381 22.9017 20.6481 22.995C20.8614 23.085 21.0381 23.215 21.1781 23.385C21.3214 23.5517 21.4297 23.7533 21.5031 23.99C21.5764 24.2267 21.6131 24.4883 21.6131 24.775V28H20.7181V24.775C20.7181 24.3917 20.6297 24.095 20.4531 23.885C20.2797 23.6717 20.0147 23.565 19.6581 23.565C19.3947 23.565 19.1481 23.6283 18.9181 23.755C18.6914 23.8817 18.4814 24.0533 18.2881 24.27V28H17.3931V20.635H18.2881V23.61ZM23.8092 23.67C23.9192 23.5467 24.0359 23.435 24.1592 23.335C24.2826 23.235 24.4126 23.15 24.5492 23.08C24.6892 23.0067 24.8359 22.9517 24.9892 22.915C25.1459 22.875 25.3142 22.855 25.4942 22.855C25.7709 22.855 26.0142 22.9017 26.2242 22.995C26.4376 23.085 26.6142 23.215 26.7542 23.385C26.8976 23.5517 27.0059 23.7533 27.0792 23.99C27.1526 24.2267 27.1892 24.4883 27.1892 24.775V28H26.2942V24.775C26.2942 24.3917 26.2059 24.095 26.0292 23.885C25.8559 23.6717 25.5909 23.565 25.2342 23.565C24.9709 23.565 24.7242 23.6283 24.4942 23.755C24.2676 23.8817 24.0576 24.0533 23.8642 24.27V28H22.9692V22.935H23.5042C23.6309 22.935 23.7092 22.9967 23.7392 23.12L23.8092 23.67ZM30.6804 22.855C31.0504 22.855 31.3838 22.9167 31.6804 23.04C31.9771 23.1633 32.2304 23.3383 32.4404 23.565C32.6504 23.7917 32.8104 24.0667 32.9204 24.39C33.0338 24.71 33.0904 25.0683 33.0904 25.465C33.0904 25.865 33.0338 26.225 32.9204 26.545C32.8104 26.865 32.6504 27.1383 32.4404 27.365C32.2304 27.5917 31.9771 27.7667 31.6804 27.89C31.3838 28.01 31.0504 28.07 30.6804 28.07C30.3071 28.07 29.9704 28.01 29.6704 27.89C29.3738 27.7667 29.1204 27.5917 28.9104 27.365C28.7004 27.1383 28.5388 26.865 28.4254 26.545C28.3154 26.225 28.2604 25.865 28.2604 25.465C28.2604 25.0683 28.3154 24.71 28.4254 24.39C28.5388 24.0667 28.7004 23.7917 28.9104 23.565C29.1204 23.3383 29.3738 23.1633 29.6704 23.04C29.9704 22.9167 30.3071 22.855 30.6804 22.855ZM30.6804 27.375C31.1804 27.375 31.5538 27.2083 31.8004 26.875C32.0471 26.5383 32.1704 26.07 32.1704 25.47C32.1704 24.8667 32.0471 24.3967 31.8004 24.06C31.5538 23.7233 31.1804 23.555 30.6804 23.555C30.4271 23.555 30.2054 23.5983 30.0154 23.685C29.8288 23.7717 29.6721 23.8967 29.5454 24.06C29.4221 24.2233 29.3288 24.425 29.2654 24.665C29.2054 24.9017 29.1754 25.17 29.1754 25.47C29.1754 26.07 29.2988 26.5383 29.5454 26.875C29.7954 27.2083 30.1738 27.375 30.6804 27.375ZM35.1392 20.635V28H34.2492V20.635H35.1392ZM38.7175 22.855C39.0875 22.855 39.4209 22.9167 39.7175 23.04C40.0142 23.1633 40.2675 23.3383 40.4775 23.565C40.6875 23.7917 40.8475 24.0667 40.9575 24.39C41.0709 24.71 41.1275 25.0683 41.1275 25.465C41.1275 25.865 41.0709 26.225 40.9575 26.545C40.8475 26.865 40.6875 27.1383 40.4775 27.365C40.2675 27.5917 40.0142 27.7667 39.7175 27.89C39.4209 28.01 39.0875 28.07 38.7175 28.07C38.3442 28.07 38.0075 28.01 37.7075 27.89C37.4109 27.7667 37.1575 27.5917 36.9475 27.365C36.7375 27.1383 36.5759 26.865 36.4625 26.545C36.3525 26.225 36.2975 25.865 36.2975 25.465C36.2975 25.0683 36.3525 24.71 36.4625 24.39C36.5759 24.0667 36.7375 23.7917 36.9475 23.565C37.1575 23.3383 37.4109 23.1633 37.7075 23.04C38.0075 22.9167 38.3442 22.855 38.7175 22.855ZM38.7175 27.375C39.2175 27.375 39.5909 27.2083 39.8375 26.875C40.0842 26.5383 40.2075 26.07 40.2075 25.47C40.2075 24.8667 40.0842 24.3967 39.8375 24.06C39.5909 23.7233 39.2175 23.555 38.7175 23.555C38.4642 23.555 38.2425 23.5983 38.0525 23.685C37.8659 23.7717 37.7092 23.8967 37.5825 24.06C37.4592 24.2233 37.3659 24.425 37.3025 24.665C37.2425 24.9017 37.2125 25.17 37.2125 25.47C37.2125 26.07 37.3359 26.5383 37.5825 26.875C37.8325 27.2083 38.2109 27.375 38.7175 27.375ZM43.9921 25.525C44.1721 25.525 44.3304 25.5 44.4671 25.45C44.6037 25.4 44.7187 25.33 44.8121 25.24C44.9054 25.15 44.9754 25.0433 45.0221 24.92C45.0687 24.7933 45.0921 24.655 45.0921 24.505C45.0921 24.195 44.9971 23.9483 44.8071 23.765C44.6204 23.5817 44.3487 23.49 43.9921 23.49C43.6321 23.49 43.3571 23.5817 43.1671 23.765C42.9804 23.9483 42.8871 24.195 42.8871 24.505C42.8871 24.655 42.9104 24.7933 42.9571 24.92C43.0071 25.0433 43.0787 25.15 43.1721 25.24C43.2654 25.33 43.3804 25.4 43.5171 25.45C43.6537 25.5 43.8121 25.525 43.9921 25.525ZM45.5971 28.275C45.5971 28.1517 45.5621 28.0517 45.4921 27.975C45.4221 27.8983 45.3271 27.8383 45.2071 27.795C45.0904 27.7517 44.9537 27.7217 44.7971 27.705C44.6404 27.685 44.4737 27.67 44.2971 27.66C44.1237 27.65 43.9471 27.64 43.7671 27.63C43.5871 27.62 43.4137 27.6033 43.2471 27.58C43.0604 27.6667 42.9071 27.7767 42.7871 27.91C42.6704 28.04 42.6121 28.1933 42.6121 28.37C42.6121 28.4833 42.6404 28.5883 42.6971 28.685C42.7571 28.785 42.8471 28.87 42.9671 28.94C43.0871 29.0133 43.2371 29.07 43.4171 29.11C43.6004 29.1533 43.8154 29.175 44.0621 29.175C44.3021 29.175 44.5171 29.1533 44.7071 29.11C44.8971 29.0667 45.0571 29.005 45.1871 28.925C45.3204 28.845 45.4221 28.75 45.4921 28.64C45.5621 28.53 45.5971 28.4083 45.5971 28.275ZM46.5021 23.135V23.465C46.5021 23.575 46.4321 23.645 46.2921 23.675L45.7171 23.75C45.8304 23.97 45.8871 24.2133 45.8871 24.48C45.8871 24.7267 45.8387 24.9517 45.7421 25.155C45.6487 25.355 45.5187 25.5267 45.3521 25.67C45.1854 25.8133 44.9854 25.9233 44.7521 26C44.5187 26.0767 44.2654 26.115 43.9921 26.115C43.7554 26.115 43.5321 26.0867 43.3221 26.03C43.2154 26.0967 43.1337 26.1683 43.0771 26.245C43.0204 26.3183 42.9921 26.3933 42.9921 26.47C42.9921 26.59 43.0404 26.6817 43.1371 26.745C43.2371 26.805 43.3671 26.8483 43.5271 26.875C43.6871 26.9017 43.8687 26.9183 44.0721 26.925C44.2787 26.9317 44.4887 26.9433 44.7021 26.96C44.9187 26.9733 45.1287 26.9983 45.3321 27.035C45.5387 27.0717 45.7221 27.1317 45.8821 27.215C46.0421 27.2983 46.1704 27.4133 46.2671 27.56C46.3671 27.7067 46.4171 27.8967 46.4171 28.13C46.4171 28.3467 46.3621 28.5567 46.2521 28.76C46.1454 28.9633 45.9904 29.1433 45.7871 29.3C45.5837 29.46 45.3337 29.5867 45.0371 29.68C44.7437 29.7767 44.4121 29.825 44.0421 29.825C43.6721 29.825 43.3487 29.7883 43.0721 29.715C42.7954 29.6417 42.5654 29.5433 42.3821 29.42C42.1987 29.2967 42.0604 29.1533 41.9671 28.99C41.8771 28.83 41.8321 28.6617 41.8321 28.485C41.8321 28.235 41.9104 28.0233 42.0671 27.85C42.2237 27.6767 42.4387 27.5383 42.7121 27.435C42.5621 27.3683 42.4421 27.28 42.3521 27.17C42.2654 27.0567 42.2221 26.905 42.2221 26.715C42.2221 26.6417 42.2354 26.5667 42.2621 26.49C42.2887 26.41 42.3287 26.3317 42.3821 26.255C42.4387 26.175 42.5071 26.1 42.5871 26.03C42.6671 25.96 42.7604 25.8983 42.8671 25.845C42.6171 25.705 42.4221 25.52 42.2821 25.29C42.1421 25.0567 42.0721 24.7867 42.0721 24.48C42.0721 24.2333 42.1187 24.01 42.2121 23.81C42.3087 23.6067 42.4421 23.435 42.6121 23.295C42.7821 23.1517 42.9837 23.0417 43.2171 22.965C43.4537 22.8883 43.7121 22.85 43.9921 22.85C44.2121 22.85 44.4171 22.875 44.6071 22.925C44.7971 22.9717 44.9704 23.0417 45.1271 23.135H46.5021ZM51.7924 22.935L48.9674 29.495C48.9374 29.5617 48.899 29.615 48.8524 29.655C48.809 29.695 48.7407 29.715 48.6474 29.715H47.9874L48.9124 27.705L46.8224 22.935H47.5924C47.669 22.935 47.729 22.955 47.7724 22.995C47.819 23.0317 47.8507 23.0733 47.8674 23.12L49.2224 26.31C49.2757 26.45 49.3207 26.5967 49.3574 26.75C49.404 26.5933 49.454 26.445 49.5074 26.305L50.8224 23.12C50.8424 23.0667 50.8757 23.0233 50.9224 22.99C50.9724 22.9533 51.0274 22.935 51.0874 22.935H51.7924Z" fill="white"/>
</svg>
